<svg xmlns="http://www.w3.org/2000/svg" width="33.163" height="30" viewBox="0 0 33.163 30"><g transform="translate(-260.587 -167.504)"><path d="M280.587,292.086c-2.1-.017-4.2-.013-6.306,0-1.475.009-2.683-.37-3.663.705-.438.48-1.837,2-2.251,2.5a12.355,12.355,0,0,1-2.709,2.682c-1.478.956-2.112.323-3.851.325-.707,0-1.21,1.515-1.22,2.2a1.179,1.179,0,0,0,1.177,1.246,10.808,10.808,0,0,0,8.475-3.65c.338-.367.663-.746.982-1.13q.136,1,.206,2.019a23.622,23.622,0,0,1-.077,4.12.455.455,0,0,0,.3.531q2.63,1.2,5.25,2.419a.689.689,0,0,0,.641,0q2.707-1.3,5.423-2.581a.436.436,0,0,0,.27-.54,8.977,8.977,0,0,1-.118-1.005,26.162,26.162,0,0,1,.25-5.338c.062.076.125.152.186.229C284.592,298.129,282.1,292.1,280.587,292.086Z" transform="translate(0 -115.215)" fill="#242b61"/><path d="M426.2,436.023a2.789,2.789,0,0,0-1.88-.644,2.064,2.064,0,0,0-1.043.238l-14.043,6.633a2.3,2.3,0,0,0-.568.361,1.381,1.381,0,0,0,.148,2.272,2.044,2.044,0,0,0,2,.186q7.26-2.8,14.524-5.6a3.279,3.279,0,0,0,.821-.447A1.855,1.855,0,0,0,426.2,436.023Z" transform="translate(-136.467 -247.751)" fill="#242b61"/><path d="M432.2,175.886a4.18,4.18,0,0,0,4.208-4.183,4.212,4.212,0,1,0-4.208,4.183Z" transform="translate(-154.822 0)" fill="#242b61"/><path d="M321.563,439.458c.082-.039.216-.053.2-.185-.013-.1-.127-.11-.2-.146q-3.9-1.844-7.8-3.687a2.8,2.8,0,0,0-1.16-.266,2.5,2.5,0,0,0-1.4.359,1.942,1.942,0,0,0-1.093,1.759,1.97,1.97,0,0,0,1.316,1.809c1.9.774,3.81,1.512,5.717,2.266a.539.539,0,0,0,.467,0C318.928,440.727,320.247,440.1,321.563,439.458Z" transform="translate(-45.804 -247.565)" fill="#242b61"/><path d="M510.265,538.138q-1.05.4-2.1.795c-.439.168-.876.343-1.313.515l0,.1a13.708,13.708,0,0,0,1.745.633,1.917,1.917,0,0,0,1.412-.2,1.417,1.417,0,0,0,.772-1.56C510.7,538.066,510.6,538.01,510.265,538.138Z" transform="translate(-227.768 -342.739)" fill="#242b61"/><path d="M264.75,292.086c2.1-.017,4.2-.013,6.306,0,1.475.009,2.683-.37,3.663.705.438.48,1.837,2,2.251,2.5a12.354,12.354,0,0,0,2.709,2.682c1.478.956,2.112.323,3.851.324.707,0,1.21,1.515,1.22,2.2a1.179,1.179,0,0,1-1.177,1.246,10.808,10.808,0,0,1-8.475-3.65c-.338-.367-.663-.746-.982-1.13q-.136,1-.206,2.019a23.622,23.622,0,0,0,.077,4.12.455.455,0,0,1-.3.531q-2.63,1.2-5.25,2.419a.689.689,0,0,1-.641,0q-2.707-1.3-5.423-2.581a.436.436,0,0,1-.27-.54,8.977,8.977,0,0,0,.118-1.005,26.161,26.161,0,0,0-.25-5.338c-.062.076-.125.152-.186.229C260.746,298.129,263.235,292.1,264.75,292.086Z" transform="translate(9 -115.215)" fill="#242b61"/></g></svg>