<svg xmlns="http://www.w3.org/2000/svg" viewBox="0 0 121.778 68.084"><path d="M-5970.722,233.218a11.522,11.522,0,0,1-6.831-7.987,1.853,1.853,0,0,0-1.622-1.588,7.821,7.821,0,0,1-6.195-7.883c-.009-15.607-.007-25.383.006-40.99a7.76,7.76,0,0,1,7.786-7.757q11.884-.014,23.77-.006h11.886c11.661,0,23.322.017,34.983-.009a12.47,12.47,0,0,1,10.153,4.9c4.5,5.531,9,12.519,13.453,18.089a8.881,8.881,0,0,0,4.351,3l.8.258c2.961.966,5.486,1.816,8.006,2.675a7.866,7.866,0,0,1,5.576,7.724c.013,6.414,0,5.535,0,11.949a8.011,8.011,0,0,1-6.326,8.089,1.507,1.507,0,0,0-1.328,1.358,11.576,11.576,0,0,1-11.137,9.01,11.519,11.519,0,0,1-10.973-9.026,1.33,1.33,0,0,0-1.548-1.23q-29,.032-57.992-.018c-1.263,0-1.431.65-1.67,1.571a11.544,11.544,0,0,1-10.988,8.739A10.394,10.394,0,0,1-5970.722,233.218Zm80.751-10.444a6.311,6.311,0,0,0,6.575,6.763,6.437,6.437,0,0,0,6.784-6.612,6.444,6.444,0,0,0-6.626-6.9h-.02C-5887.277,216.023-5889.935,218.693-5889.971,222.774Zm-83.354-.068a6.52,6.52,0,0,0,6.757,6.829,6.5,6.5,0,0,0,6.764-6.672,6.518,6.518,0,0,0-6.736-6.85h-.062A6.611,6.611,0,0,0-5973.324,222.706Zm16.983-4.551a1.8,1.8,0,0,0,1.83,1.175q29.6-.041,59.208,0a1.707,1.707,0,0,0,1.738-1.1c2.127-4.056,5.336-6.639,10.085-6.7,4.862-.059,8.223,2.479,10.363,6.659.607,1.188,1.231,1.2,2.209.781a2.436,2.436,0,0,0,1.5-1.625,7.4,7.4,0,0,0,.3-1.848c.021-6.235.026-5.178.006-11.413-.008-2.408-.514-3.085-2.748-3.842-2.59-.877-5.178-1.759-7.784-2.582a14.157,14.157,0,0,1-7.054-4.463c-4.4-5.441-8.87-12.283-13.151-17.814a9.525,9.525,0,0,0-8.227-3.9c-11.3.078-22.607.029-33.911.029q-17.559,0-35.122,0c-2.606,0-3.75,1.03-3.754,3.492,0,.467-.007,25.763,0,40.859a4.573,4.573,0,0,0,.469,2.08c.52,1.032,1.534,1.164,2.509,1.31.725.108.826-.565,1.06-1.02,2.114-4.114,5.366-6.612,10.083-6.7l.24,0C-5961.777,211.533-5958.51,214.073-5956.341,218.155Zm52.686-24.812v-.011c-1.163,0-15.8,0-16.958-.072-.937-.057-1.558-.915-1.6-2.491-.043-1.6.595-2.624,1.485-2.672,2.437-.132,18.352-.072,20.788.039.906.041,1.535,1.044,1.514,2.633-.024,1.767-.755,2.51-1.742,2.561-.451.022-.9.029-1.352.029C-5902.231,193.359-5902.942,193.342-5903.655,193.342Zm-30.624,0,1.457-.011c-1.161,0-38.816,0-39.978-.072-.936-.057-1.558-.915-1.6-2.491-.042-1.6.595-2.624,1.485-2.672,2.438-.132,39.913-.072,42.35.039.906.041,1.537,1.044,1.514,2.633-.024,1.767-.755,2.51-1.741,2.561-.451.022-.9.029-1.353.029C-5932.855,193.359-5933.567,193.342-5934.279,193.342Z" transform="translate(5985.875 -166.499)"/></svg>