<svg xmlns="http://www.w3.org/2000/svg" width="34.735" height="30" viewBox="0 0 34.735 30"><path d="M19.932,13.337c0-.095.016-.189.016-.284a6.314,6.314,0,0,0-6.316-6.316c-.095,0-.189.016-.284.016ZM10.3,7.716,6.163,3.579,4.158,5.584,8.295,9.721a6.154,6.154,0,0,0-.979,3.332,6.314,6.314,0,0,0,6.316,6.316,6.154,6.154,0,0,0,3.332-.979L30.574,32l2.005-2.005L18.968,16.384,10.3,7.716Zm3.332,14.811C9.416,22.526,1,24.642,1,28.842V32H26.263V28.842C26.263,24.642,17.847,22.526,13.632,22.526ZM25.884,7.305,23.232,9.974a5.238,5.238,0,0,1,0,6.142l2.653,2.668c3.189-3.189,3.189-8.005,0-11.479ZM31.111,2,28.537,4.574a12.6,12.6,0,0,1,0,16.958l2.574,2.574A15.52,15.52,0,0,0,31.111,2Z" transform="translate(-1 -2)" fill="#242b61"/></svg>