<svg xmlns="http://www.w3.org/2000/svg" width="21.295" height="34" viewBox="0 0 21.295 34"><g transform="translate(-992.28 -77.833)"><path d="M999.119,146.136c-.525.767-1.039,1.541-1.579,2.3a.8.8,0,0,0,.085,1.168c.709.747,1.387,1.525,2.058,2.308a2.146,2.146,0,0,1-.014,3.105,2.2,2.2,0,0,1-3.2-.366q-1.663-1.871-3.321-3.746a2.309,2.309,0,0,1-.153-3.312q2.405-3.438,4.762-6.91a2.77,2.77,0,0,1,3.448-1.172,5.238,5.238,0,0,0,3.67-.034,2.643,2.643,0,0,1,3.144.926q2.656,3.758,5.25,7.559a2.206,2.206,0,0,1-.233,2.732q-1.823,2.122-3.714,4.184a2.135,2.135,0,0,1-2.882.221,2.067,2.067,0,0,1-.37-2.846,31.128,31.128,0,0,1,2.325-2.655c.369-.389.443-.661.093-1.116-.577-.752-1.073-1.565-1.722-2.285.338.641.66,1.292,1.021,1.92a.823.823,0,0,1-.132,1.116c-.656.7-1.264,1.436-1.9,2.147a2.813,2.813,0,0,0-.777,2.9c.172.532-.089.655-.542.653-.958,0-1.915,0-2.872,0-.458,0-.7-.142-.539-.667a2.917,2.917,0,0,0-.878-3.012c-.638-.679-1.222-1.408-1.85-2.1a.711.711,0,0,1-.122-.928c.366-.664.711-1.34,1.065-2.011Z" transform="translate(-0.076 -52.403)" fill="#242b61"/><path d="M1039.1,86.642a4.415,4.415,0,0,1-4.437-4.384,4.3,4.3,0,0,1,4.4-4.421,4.424,4.424,0,0,1,4.414,4.421A4.481,4.481,0,0,1,1039.1,86.642Z" transform="translate(-36.139)" fill="#242b61"/><path d="M992.28,234.208a2.113,2.113,0,0,1,.328-1.258c.654-.917,1.088-.935,1.82-.1a12.254,12.254,0,0,0,2.3,2.354.811.811,0,0,1,.315.479c.5,1.689,1.025,3.373,1.518,5.065a2.1,2.1,0,1,1-3.993,1.278c-.611-1.861-1.157-3.744-1.708-5.624A9.511,9.511,0,0,1,992.28,234.208Z" transform="translate(0 -131.664)" fill="#242b61"/><path d="M1099.8,233.8a12.009,12.009,0,0,1-.686,2.694c-.466,1.724-1.008,3.428-1.574,5.123a2.1,2.1,0,0,1-3.183,1.224,2,2,0,0,1-.855-2.37c.484-1.668,1.007-3.325,1.511-4.988a.918.918,0,0,1,.309-.485,17.864,17.864,0,0,0,2.463-2.511c.621-.722,1.122-.676,1.662.132A2.082,2.082,0,0,1,1099.8,233.8Z" transform="translate(-86.225 -131.433)" fill="#242b61"/></g></svg>