<svg version="1.1" id="Layer_1" xmlns="http://www.w3.org/2000/svg" xmlns:xlink="http://www.w3.org/1999/xlink" x="0px" y="0px"
	 viewBox="0 0 126.9 62" style="enable-background:new 0 0 126.9 62;" xml:space="preserve">
<path d="M45.1,0c7.6,0,15.2,0.1,22.8,0c3.5,0,6.5,1.1,9.1,3.5c4.4,4,8.9,8,13.2,12.1c1.4,1.3,2.9,2,4.8,2.2c8,0.9,16.1,1.9,24.1,2.9
	c5.3,0.6,8.3,4.3,7.8,9.6c-0.4,3.4-0.8,6.8-1.3,10.2c-0.6,4.2-3.2,6.6-7.4,6.5c-2.8-0.1-3.8,1-4.3,3.7c-1.3,6.7-7.4,11.3-14,11.2
	c-7.1-0.1-12.9-4.9-14-12c-0.4-2.5-1.4-2.9-3.5-2.9c-11.9,0.1-23.9,0.1-35.8,0c-2.4,0-3.3,0.8-3.7,3.2c-1.3,7.1-7.4,11.9-14.5,11.6
	c-7.3-0.3-12.9-5.4-13.6-12.6c-0.2-1.9-0.8-2.7-2.6-3c-2.9-0.5-5.7-1.2-8.6-1.7c-2.4-0.4-3.5-1.7-3.4-4.2c0.1-2.2,0-4.5,0-6.7
	c0-1,0-2.3,0.9-2.8c2.3-1.2,2.3-3.4,2.7-5.4c1.3-6.8,3.4-13.3,7-19.3c2.5-4.1,6.1-6.3,11-6.3C29.5,0.1,37.3,0,45.1,0z M116,41.4
	c2.7,0.5,3.9-0.8,4.2-3.4c0.3-2.5,0.5-5,0.9-7.5c0.4-2.5-0.6-3.8-3.1-4.1c-6.3-0.7-12.6-1.9-19-2.2c-6.3-0.4-11.5-2.3-15.8-7.1
	c-3-3.3-6.6-6-9.8-9c-1.7-1.6-3.6-2.3-6-2.3c-15.1,0.1-30.2,0.1-45.2,0c-3.2,0-5.4,1.2-6.9,4C11.7,16,9.5,22.8,8.9,30.1
	c-0.2,1.7-0.5,3.2-2,4.2c-1.5,1-1.2,2.5-1,3.8c0.2,1.5,1.5,1.4,2.5,1.7c1.7,0.4,3.4,0.6,5,1.1c1.8,0.5,2.7,0,3.8-1.5
	c6-8.2,17.4-8.2,23.3-0.1c1.2,1.7,2.6,2.3,4.6,2.2c13-0.1,25.9-0.1,38.9,0c2,0,3.3-0.7,4.5-2.3c5.7-7.9,17.3-7.9,23.1,0
	C112.7,40.8,113.9,41.8,116,41.4z M91.4,47.5c0,4.9,3.7,8.8,8.5,8.9c4.6,0,8.8-4.1,8.8-8.7c0-4.6-3.8-8.4-8.5-8.5
	C95.1,39,91.4,42.5,91.4,47.5z M20.3,47.5c0,4.9,3.7,8.8,8.5,8.8c4.6,0,8.8-4.2,8.8-8.8c0-4.7-3.8-8.4-8.6-8.5
	C23.8,39,20.3,42.4,20.3,47.5z"/>
<path d="M48.2,18.2c7.7,0,15.4,0,23.1,0c2,0,4.2,0.1,4.2,2.8c0,2.6-2.1,2.9-4.2,2.9c-15.4,0-30.8,0-46.1,0c-0.5,0-1,0-1.5-0.1
	c-1.7-0.3-3-1-2.8-2.9c0.1-1.9,1.4-2.6,3.1-2.6c3.9,0,7.9,0,11.8,0C39.9,18.2,44.1,18.2,48.2,18.2z"/>
</svg>
