<svg xmlns="http://www.w3.org/2000/svg" width="39" height="26.15" viewBox="0 0 39 26.15"><g transform="translate(-5123 -8082)"><g transform="translate(-3157.778 2156.858)"><path d="M8.5,17A8.5,8.5,0,0,1,2.49,2.489,8.5,8.5,0,0,1,14.51,14.51,8.445,8.445,0,0,1,8.5,17Zm6.375-8.5C12,8.5,9.612,11.36,9.563,14.875A6.5,6.5,0,0,0,14.875,8.5ZM2.125,8.5a6.5,6.5,0,0,0,5.312,6.375C7.387,11.36,5,8.5,2.125,8.5ZM8.5,7.969A1.062,1.062,0,1,0,9.563,9.031,1.064,1.064,0,0,0,8.5,7.969Zm0-5.844a6.183,6.183,0,0,0-5.843,4.25H14.344A6.183,6.183,0,0,0,8.5,2.125Z" transform="translate(8302.778 5927.142)" fill="#242b61"/></g><g transform="translate(1 1)"><circle cx="6.5" cy="6.5" r="6.5" transform="translate(5129 8081)" fill="#242b61"/><path d="M14.075,15C9.711,15,1,17.19,1,21.538v3.269H27.15V21.538C27.15,17.19,18.439,15,14.075,15Z" transform="translate(5121 8082.344)" fill="#242b61"/></g></g></svg>