<svg xmlns="http://www.w3.org/2000/svg" width="106.042" height="128" viewBox="0 0 106.042 128"><g transform="translate(-77.891 -123.021)"><path d="M239.2,415.9c.689.591.427,1.411.427,2.133v29.113c0,.2.066.427.066.624H204.9c.131-5.711.131-11.455,0-17.166,1.05.033.558.853.558,1.28.033,4.6.066,9.19,0,13.753-.033,1.313.394,1.674,1.674,1.674,10.109-.033,20.219-.066,30.328,0,1.444,0,1.674-.492,1.674-1.772-.066-8.3-.033-16.608-.033-24.912C239.134,419.051,239.2,417.475,239.2,415.9Z" transform="translate(-85.322 -196.749)" fill="#989393"/><path d="M153.877,219.151c-.033,1.575-.066,3.151-.066,4.726,0,8.3-.033,16.608.033,24.912,0,1.28-.23,1.805-1.674,1.772q-15.164-.1-30.328,0c-1.28,0-1.707-.361-1.674-1.674.066-4.6.033-9.19,0-13.753,0-.427.525-1.247-.558-1.28-.23,0-.427.033-.656.033a.748.748,0,0,0-1.083.3c-4.07.427-8.173.755-12.21-.263a22.253,22.253,0,0,1-15.426-12.768,55.688,55.688,0,0,0-7.845-12.21c-.985-1.182-2.56-1.641-3.61-2.823-.394-.46-1.05-.821-.853-1.444.2-.755,1.017-.722,1.674-.788,6.564-.558,11.225,2.56,14.475,7.943,2.987,4.923,6.893,8.567,12.538,10.044a21.448,21.448,0,0,0,11.947-.394,1.813,1.813,0,0,0,1.51-1.805c.3-4.07,1.149-8.009,3.971-11.455-1.083-.2-1.937-.394-2.823-.525a40.694,40.694,0,0,1-19.037-7.746,28.888,28.888,0,0,1-11.389-19.037,73.51,73.51,0,0,1,.23-20.612c.689-5.284,2.166-10.306,5.974-14.245a3.526,3.526,0,0,0,.853-4.234c-2-5.842-1.444-11.718.361-17.56.328-1.083.821-1.411,2-1.116,4.431,1.083,7.845,3.676,10.93,6.827a41.269,41.269,0,0,1,4.037,4.923c.361.492.624.755,1.247.263,2.363-1.871,5.219-2.462,8.074-2.888a87.521,87.521,0,0,1,24.846-.033c2.757.394,5.547.886,7.845,2.626,1.083.821,1.51.361,2.1-.492a33.075,33.075,0,0,1,8.041-8.238,18.888,18.888,0,0,1,6.663-3.02c1.05-.263,1.477.033,1.805.985,2.232,6.3,2.56,12.6.066,18.906-.3.788-.492,1.346.23,2.035,4.037,3.807,5.941,8.665,6.729,14.015a75.56,75.56,0,0,1,.755,19.628c-1.247,11.094-6.893,19.168-16.674,24.453a.672.672,0,0,0-.788.427c-.263.131-.525.263-.755.361a3.292,3.292,0,0,0-2.166.952c-.263.1-.558.164-.821.263a.661.661,0,0,0-.821.394c-.164.033-.361.1-.525.131a8.319,8.319,0,0,0-3.742,1.149c-.164.033-.361.066-.525.1a4.205,4.205,0,0,0-2.724.624c-.722.1-1.411.2-2.133.3a5.585,5.585,0,0,0-1.674.164c-.525.23-.3.558.164.689l.033.033a.955.955,0,0,0,.689.919c.263.525.525,1.05.788,1.543a2.363,2.363,0,0,0,.788,1.805c.066.3.131.558.2.853a6.789,6.789,0,0,0,.689,2.659c.033.2.066.394.1.558a.907.907,0,0,0,.2,1.083A5.265,5.265,0,0,0,153.877,219.151Z" fill="#110505"/><path d="M319.6,376.149A7.932,7.932,0,0,1,323.342,375C322.127,375.492,321.011,376.28,319.6,376.149Z" transform="translate(-162.375 -169.273)" fill="#989393"/><path d="M309.7,379.424a4.415,4.415,0,0,1,2.724-.624A3.485,3.485,0,0,1,309.7,379.424Z" transform="translate(-155.724 -171.826)" fill="#989393"/><path d="M306.889,402.559a5.721,5.721,0,0,1-.689-2.659A2.732,2.732,0,0,1,306.889,402.559Z" transform="translate(-153.373 -186.001)" fill="#989393"/><path d="M337.6,370.452a3.207,3.207,0,0,1,2.166-.952A2.629,2.629,0,0,1,337.6,370.452Z" transform="translate(-174.467 -165.579)" fill="#989393"/><path d="M297.727,382.453c-.492-.131-.689-.46-.164-.689a5.584,5.584,0,0,1,1.674-.164C298.876,382.158,297.924,381.666,297.727,382.453Z" transform="translate(-147.362 -173.707)" fill="#989393"/><path d="M303.988,393.605a2.363,2.363,0,0,1-.788-1.805C303.889,392.227,303.922,392.916,303.988,393.605Z" transform="translate(-151.358 -180.559)" fill="#989393"/><path d="M308.617,410.783a.948.948,0,0,1-.2-1.083A.688.688,0,0,1,308.617,410.783Z" transform="translate(-154.806 -192.584)" fill="#989393"/><path d="M199.7,460.891c.263-.459.624-.459,1.083-.3A.867.867,0,0,1,199.7,460.891Z" transform="translate(-81.829 -226.708)" fill="#989393"/><path d="M299.489,385.219a.918.918,0,0,1-.689-.919A.793.793,0,0,1,299.489,385.219Z" transform="translate(-148.402 -175.521)" fill="#989393"/><path d="M346.6,367.515a.69.69,0,0,1,.788-.427C347.289,367.482,347.06,367.744,346.6,367.515Z" transform="translate(-180.513 -163.954)" fill="#989393"/><path d="M332.6,373.629a.634.634,0,0,1,.821-.394C333.289,373.6,333.06,373.826,332.6,373.629Z" transform="translate(-171.108 -168.067)" fill="#989393"/></g></svg>