<svg xmlns="http://www.w3.org/2000/svg" width="34.49" height="33.915" viewBox="0 0 34.49 33.915"><g transform="translate(-1663.563 -900.916)"><path d="M20.531,29.708h-.045a2.248,2.248,0,0,1-2.119-2.2c-.014-.865-.011-1.744-.007-2.594,0-.2,0-.4,0-.6,0-1.217-.539-1.784-1.7-1.786-1.714,0-3.519-.007-5.363-.007-1.718,0-3.473,0-5.364.006a1.5,1.5,0,0,0-1.6,1.681c0,.514,0,1.034,0,1.538v.006c0,.555,0,1.129,0,1.694a2.234,2.234,0,0,1-2.168,2.261H2.141A2.209,2.209,0,0,1,0,27.415q0-3.626,0-7.253V15.317q0-3.642,0-7.285A1.406,1.406,0,0,1,1.359,6.453H1.37a1.266,1.266,0,0,1,.922.376,1.72,1.72,0,0,1,.447,1.232q0,.257,0,.515v.016c0,.434,0,.882,0,1.325a.912.912,0,0,0,.96,1.011c1.806,0,3.638,0,5.409,0h2.766L22.725,22.117c0,.977-.012,1.97-.022,2.931q-.007.616-.013,1.233c0,.167,0,.336.007.5.007.259.013.527,0,.791A2.222,2.222,0,0,1,20.531,29.708Zm2.184-11.2,0,0-7.619-7.849.055-.056,4.412-4.547Q22.214,3.318,24.867.583A1.546,1.546,0,0,1,25.987,0a1.313,1.313,0,0,1,.3.035,1.413,1.413,0,0,1,1.04.929,1.453,1.453,0,0,1-.292,1.393c-.327.389-.685.747-1.024,1.08a.4.4,0,0,0-.154.265A.389.389,0,0,0,26,3.962c1.566,1.6,3.154,3.227,4.689,4.8l.057.058,1.4,1.441.04.039c.018.017.035.033.051.05,1.149,1.2,1.145,1.852-.015,3.048q-.441.455-.886.907c-.666.68-1.355,1.382-2.014,2.09a1.818,1.818,0,0,1-1.314.655,1.626,1.626,0,0,1-1.2-.6c-.641-.712-1.327-1.4-1.99-2.071l-.52-.525c-.2-.2-.3-.3-.407-.3s-.177.072-.337.2l-.114.093a2.11,2.11,0,0,0-.754,1.877c.015.849.026,1.757.032,2.776ZM25.3,6.928h0a.682.682,0,0,0-.484.217.706.706,0,0,0,.5,1.2h.011A.67.67,0,0,0,26,7.624a.662.662,0,0,0-.692-.695Z" transform="translate(1664.959 902.074)" fill="#242b61"/><path d="M.011.193,45.387.057,45.379,2.5,0,2.637Z" transform="translate(1665.425 900.874) rotate(45)" fill="#242b61"/></g></svg>