<svg xmlns="http://www.w3.org/2000/svg" width="32" height="34" viewBox="0 0 32 34"><g transform="translate(-8303 -5927)"><g transform="translate(8303 5929)" opacity="0.31"><path d="M16,0A16,16,0,1,0,32,16,16,16,0,0,0,16,0Zm0,4a11.649,11.649,0,0,1,11,8H5A11.649,11.649,0,0,1,16,4Zm0,14a2,2,0,1,1,2-2A2,2,0,0,1,16,18ZM4,16c5.465,0,9.907,5.469,10,12A12.227,12.227,0,0,1,4,16ZM18,28c.093-6.531,4.535-12,10-12A12.227,12.227,0,0,1,18,28Z" fill="#394c5f"/></g><g transform="translate(8303 5927)"><path d="M16,0A16,16,0,1,0,32,16,16,16,0,0,0,16,0Zm0,4a11.649,11.649,0,0,1,11,8H5A11.649,11.649,0,0,1,16,4ZM4,16c5.465,0,9.907,5.469,10,12A12.227,12.227,0,0,1,4,16ZM18,28c.093-6.531,4.535-12,10-12A12.227,12.227,0,0,1,18,28Z" fill="#242b61"/></g><circle cx="2" cy="2" r="2" transform="translate(8317 5942)" fill="#000427"/></g></svg>