<svg xmlns="http://www.w3.org/2000/svg" width="35.478" height="33.915" viewBox="0 0 35.478 33.915"><g transform="translate(-401.479 -388)"><path d="M.011.193,45.387.057,45.379,2.5,0,2.637Z" transform="translate(403.862 387.958) rotate(45)" fill="#242b61"/><path d="M-11138.439-1499.2c-2.415,0-4.983-.211-4.986-.6l0-.834v-.062c-.013-2.167-.026-4.409.017-6.613a1.149,1.149,0,0,0-.247-.856,1.517,1.517,0,0,0-1.108-.269h-.072c-2.747.006-3.154.006-3.718.006l-.792,0-2.736,0a3.418,3.418,0,0,1-2.8-1.064,2.632,2.632,0,0,1-.4-2.912,2.669,2.669,0,0,1,2.578-1.627c1.971,0,2.066,0,2.069,0h11.875l5.838,5.8a1.178,1.178,0,0,0-.353,1.037c.04,2.169.041,4.541,0,7.251C-11133.29-1499.434-11135.878-1499.2-11138.439-1499.2Zm10.817-9.21c-.625,0-1.291,0-2.035-.009l-5.647-5.614h4.417c1.359,0,2.924,0,6.521-.013h.026a2.878,2.878,0,0,1,2.941,1.643,2.631,2.631,0,0,1-.1,2.536,3.217,3.217,0,0,1-2.705,1.414C-11125.242-1508.427-11126.359-1508.414-11127.622-1508.414Zm-8.954-6.887h0l-6.829-6.788a5.59,5.59,0,0,1,1.95-2.909,5.657,5.657,0,0,1,3.384-1.206h.079a5.528,5.528,0,0,1,3.885,1.571,5.456,5.456,0,0,1,1.652,3.836,5.328,5.328,0,0,1-4.12,5.5Zm-3.724-.255a5.236,5.236,0,0,1-2.806-2.791l2.807,2.789Z" transform="translate(11557.562 1917.206)" fill="#242b61" stroke="rgba(0,0,0,0)" stroke-miterlimit="10" stroke-width="1"/></g></svg>