<svg xmlns="http://www.w3.org/2000/svg" width="157.447" height="128" viewBox="0 0 157.447 128"><path d="M146.2,330.907c59.432,0,91.939-49.255,91.939-91.939,0-1.383,0-2.767-.1-4.2a65.722,65.722,0,0,0,16.105-16.748,63.64,63.64,0,0,1-18.576,5.089A32.38,32.38,0,0,0,249.8,205.225a65.09,65.09,0,0,1-20.5,7.855,32.335,32.335,0,0,0-55.035,29.494,91.742,91.742,0,0,1-66.6-33.742,32.323,32.323,0,0,0,9.979,43.129,31.9,31.9,0,0,1-14.673-4.051v.4a32.36,32.36,0,0,0,25.937,31.667,32.278,32.278,0,0,1-14.574.543,32.354,32.354,0,0,0,30.185,22.429,65.016,65.016,0,0,1-40.115,13.882,67.182,67.182,0,0,1-7.707-.445,91.391,91.391,0,0,0,49.5,14.525" transform="translate(-96.7 -202.907)" fill="#439cd6"/></svg>