<svg xmlns="http://www.w3.org/2000/svg" width="47.005" height="79.455" viewBox="0 0 47.005 79.455"><g transform="matrix(0.999, 0.035, -0.035, 0.999, 2.761, -1.058)"><path d="M41.938,0c0,1.838.564,7.984-7.586,14.154-4.167,3.153-14.11,6.8-14.294,9.376S16.381,44.4,15.093,44.4s-7.353-2.39-7.353-2.39,4.688-21.326,5.239-22.981S23.47,10.938,23.1,10.11C22.68,9.16,10.5,14.521,10.037,15.624c-.961,2.308-2.528,19.3-4,18.937S1.166,34.377.248,32.722s.873-19.029,2.9-21.235S22.453,1.428,25.946.693,41.938,0,41.938,0Z" transform="translate(0 34.7)" fill="#b5b5b5"/><path d="M19.749.041S15.442,10.892,14.8,11.353.605,14.624.145,15.635s.254,3.429.99,3.613A38.6,38.6,0,0,0,8.66,17.962a71.859,71.859,0,0,0,8.416-2.624c1.1-.481,3.954-3.459,5.149-7.871S20.669-.419,19.749.041Z" transform="translate(7.798 19.892)" fill="#727272"/><path d="M17.258,4.824a4.38,4.38,0,0,1,2.26,4.144c-.436,5.277-3.015,15.85-3.311,18.293-.529,4.359-2.393,6.255-2.393,6.255S7.857,32.04,5.782,31.2C-.422,28.693.006,25.557.006,25.557S3.178,5.37,3.448,3.7C3.828,1.348,6.032-.914,8.485.375,11.819,2.126,13.9,3,17.258,4.824Z" transform="translate(25.115 10.761)" fill="#cbced2"/><path d="M21.221.074c-4.045,1.1-5.888,5.73-7.267,9.131s-3.033,2.758-6.71,4.044S.81,14.813.258,15.823-.018,19.316,1.637,19.5s6.25-.735,8.825-1.655,5.515-1.655,8.273-4.32S25.317-1.042,21.221.074Z" transform="translate(19.76 23.357)" fill="#727272"/><path d="M4.275,1.684A6.752,6.752,0,0,0,1.8,0C.661.125,3.037,2.179,2.691,2.327S.273,2.85.068,3.441c-.4,1.139,1.04,3.515,1.98,3.664s2.8-.965,3.292-1.46S4.77,2.377,4.275,1.684Z" transform="translate(17.019 37.16)" fill="#e8c59e"/><path d="M4.412.034A4.806,4.806,0,0,0,.6,1.494C-.39,2.633.055,3.116.451,3.7c.322.47,2.9.944,4.58.766.795-.083.247-2.45.791-2.351S6.615,3.227,7.382,3C7.82,2.877,7.036.53,4.412.034Z" transform="translate(5.363 34.701)" fill="#e8c59e"/><rect width="13.404" height="13.404" rx="6.702" transform="translate(30.318)" fill="#e8c59e"/></g></svg>