<svg version="1.1" id="Layer_1" xmlns="http://www.w3.org/2000/svg" xmlns:xlink="http://www.w3.org/1999/xlink" x="0px" y="0px"
	 viewBox="0 0 40.1 58.1" style="enable-background:new 0 0 40.1 58.1;" xml:space="preserve">
<g transform="translate(-931 2394.781)">
	<path class="st0" d="M931-2342.7v-3.4c0-0.3,0.1-0.5,0.1-0.8c0.2-2.9,0.6-5.7,1.2-8.5c0.7-3.5,2.2-6.8,4.5-9.5
		c1.4-1.7,3.5-2.8,5.7-3c1.9-0.1,3.9,0,5.8-0.1c0.5,0,1,0.3,1.1,0.8c0.3,0.8,0.6,1.6,0.9,2.4c0.1,0.3,0.3,0.6,0.7,0.6
		c0.4,0,0.5-0.3,0.6-0.6c0.3-0.8,0.6-1.6,1-2.4c0.1-0.3,0.2-0.8,0.7-0.8c2.3,0,4.7-0.3,7,0.1c3,0.6,5,2.6,6.6,5.1
		c1.5,2.6,2.6,5.4,3.1,8.4c0.5,2.7,0.9,5.4,1.1,8.2v3.6c0,0.3-0.1,0.5-0.1,0.8c-0.2,2.1-1.6,3.6-3.5,3.4c-2-0.2-3.4-1.9-3.2-3.9
		c0,0,0-0.1,0-0.1c0.3-6.3,0.4-3.5-0.7-9.7c-0.3-1.8-0.8-3.5-1.6-5.2c-0.1,0.4-0.1,0.7-0.1,1.1c0,6.1,0,12.2,0,18.3
		c0,0.4,0.1,1-0.5,1.1c-0.6,0.1-15.1,0-20.2,0.1c-0.9,0-1.1-0.4-1.1-1.2c0-2.3,0-4.7,0-7c0-4.1,0-8.2,0-12.4c-0.6,1.1-1,2.2-1.2,3.4
		c-1.5,6.5-1.3,4.1-1.1,10.8c0.1,0.7,0,1.4-0.1,2.1c-0.4,1.6-1.8,2.7-3.4,2.6c-1.7-0.1-3-1.5-3.1-3.1
		C931.1-2341.9,931-2342.3,931-2342.7z M946.1-2356.2c0.7,0,1.4,0,2.1,0c0.4,0,0.7-0.1,0.7-0.6c0-0.5-0.3-0.6-0.7-0.6
		c-1.4,0-2.8,0-4.2,0c-0.4,0-0.7,0.2-0.7,0.6s0.3,0.6,0.7,0.6C944.7-2356.2,945.4-2356.2,946.1-2356.2z M956.1-2356.2L956.1-2356.2
		c0.7,0,1.5,0,2.2,0c0.3,0,0.6-0.2,0.6-0.5c0,0,0-0.1,0-0.1c0-0.3-0.2-0.6-0.5-0.6c0,0-0.1,0-0.1,0c-1.4,0-2.8,0-4.3,0
		c-0.4,0-0.7,0.2-0.7,0.6c0,0.6,0.4,0.6,0.8,0.6C954.7-2356.2,955.4-2356.2,956.1-2356.2L956.1-2356.2z"/>
	<path class="st0" d="M941.9-2379.1c0.8-1.8-0.5-2.7-1.4-3.8c-2-2.3-1.9-1.3-0.8-4.2c1.3-3.5,1.3-3.5,4.8-5c2-0.8,3.9-1.7,5.8-2.6
		c0.5-0.3,1.1-0.3,1.6,0c2.8,1.3,5.7,2.5,8.5,3.7c0.5,0.2,0.9,0.6,1.1,1.1c0.5,1.4,1.1,2.9,1.7,4.3c0.2,0.5,0.1,1-0.3,1.3
		c-0.3,0.3-0.5,0.6-0.8,0.9c-1.3,1.1-2.1,2.8-1.9,4.6c0.1,4.5-3.7,8.3-8.4,8.7c-4.5,0.3-8.6-2.7-9.6-7.1
		C942-2377.8,941.9-2378.4,941.9-2379.1z M950.5-2386c-2.1,0-4.2,0.3-6.2,1c-0.7,0.2-1.3,0.6-1.7,1.1c-0.1,0.1-0.2,0.4-0.1,0.6
		c0.2,0.2,0.4,0,0.5-0.1c0.6-0.4,1.2-0.6,1.8-0.8c4.9-1.2,9.7-1.4,14.3,0.8c0.1,0.1,0.3,0.2,0.4,0c0.1-0.2,0.1-0.3,0-0.5
		c-0.4-0.6-1-1.1-1.7-1.3C955.5-2385.7,953-2386.1,950.5-2386L950.5-2386z M954-2390c-0.9-0.1-0.9-0.1-1.5-0.9
		c-0.4-0.7-1.4-1-2.1-0.6c-0.2,0.1-0.3,0.2-0.4,0.4c-0.5,0.7-0.8,1.5-2,1C950.7-2388.1,951.9-2388.1,954-2390L954-2390z"/>
</g>
</svg>
