<svg xmlns="http://www.w3.org/2000/svg" width="33.09" height="29.708" viewBox="0 0 33.09 29.708"><g transform="translate(-1664.959 -902.074)"><path d="M0,17.745q0-4.857,0-9.714A1.413,1.413,0,0,1,1.359,6.453,1.432,1.432,0,0,1,2.738,8.061c0,.619-.008,1.238,0,1.856a.915.915,0,0,0,.959,1.011c3.6.007,7.208,0,10.813.009a.857.857,0,0,0,.643-.34Q20.006,5.589,24.867.583A1.441,1.441,0,0,1,26.283.035a1.407,1.407,0,0,1,.748,2.322c-.32.38-.671.733-1.024,1.081-.19.187-.215.316-.012.524q3.083,3.143,6.15,6.3c.03.031.062.058.092.089,1.142,1.19,1.138,1.859-.016,3.049-.968,1-1.952,1.979-2.9,3a1.579,1.579,0,0,1-2.517.055c-.806-.895-1.666-1.739-2.511-2.6-.425-.431-.4-.375-.857-.007a2.122,2.122,0,0,0-.755,1.877c.037,2.053.041,4.107.043,6.16,0,1.465-.022,2.929-.035,4.394,0,.43.031.859,0,1.292a2.209,2.209,0,0,1-2.208,2.136,2.239,2.239,0,0,1-2.119-2.2c-.017-1.065-.008-2.13-.005-3.195,0-1.205-.528-1.784-1.7-1.787q-5.364-.013-10.728,0a1.511,1.511,0,0,0-1.6,1.681c-.006,1.079.006,2.159,0,3.238a2.228,2.228,0,0,1-2.183,2.261A2.209,2.209,0,0,1,0,27.415Q0,22.58,0,17.745Zm25.329-9.4A.666.666,0,0,0,26,7.624a.66.66,0,0,0-.693-.7.713.713,0,0,0-.685.721A.706.706,0,0,0,25.329,8.344Z" transform="translate(1664.959 902.074)" fill="#242b61"/></g></svg>