<svg xmlns="http://www.w3.org/2000/svg" viewBox="0 0 123.739 75.472"><path d="M556.44,189.617c9.981,0,19.961-.013,29.945.01,3.919.008,4.562.661,4.566,4.6q.023,22.082.01,44.162c0,.905.01,1.816.1,2.716a1.124,1.124,0,0,0,1.241,1.059,1.148,1.148,0,0,0,1.205-1.11,24.1,24.1,0,0,0,.086-2.416q.008-16.03.01-32.063c.008-4.035.739-4.776,4.758-4.791,6.554-.028,13.107.053,19.661-.038a4.85,4.85,0,0,1,4.983,3.084c1.687,3.548,3.757,6.919,5.351,10.505,1.077,2.418,2.628,3.634,5.227,3.74a27.183,27.183,0,0,1,4.5.509c3.2.673,4.94,2.683,4.864,5.971-.109,4.728-.484,9.454-.7,14.182-.043.933-.446,1.942.779,2.653,4.209,2.436,1.846,6.158,1.385,9.232-.411,2.746-2.635,4.438-5.613,4.675a7.974,7.974,0,0,1-1.511.038c-3.525-.4-5.941.509-8.208,3.823-4.841,7.081-15.826,6.355-20.531-1.089a5.235,5.235,0,0,0-5.119-2.759q-19.51.117-39.02-.008a4.87,4.87,0,0,0-4.834,2.675,12.488,12.488,0,0,1-14.434,5.482c-5.613-1.664-9.04-6.4-9.038-12.487,0-3.951,0-3.951-4-3.954-1.916,0-3.833.028-5.747-.01-3.545-.073-4.526-.981-4.569-4.494-.068-5.343-.025-10.687-.025-16.03q0-15.429,0-30.855c0-6.927.093-7.018,7.149-7.018Zm.068,5.7c-8.672,0-17.344.061-26.016-.04-2.383-.028-3.185.807-3.119,3.167.136,4.937.04,9.882.04,14.822,0,8.672-.013,17.346.015,26.018,0,1.135-.363,2.918,1.336,2.872,4.64-.123,9.4,1.331,13.884-1.3,3.379-1.979,7.3-2.544,10.74-.628,3.775,2.108,7.626,2.161,11.655,2.116,5.548-.066,11.1-.136,16.638.033,2.756.083,3.7-.832,3.677-3.624q-.166-19.964,0-39.933c.028-2.877-1.079-3.593-3.742-3.553C573.25,195.391,564.88,195.313,556.508,195.316Zm42.745,29.692c0,4.837-.013,9.673.013,14.51.005,1.084-.108,2.633,1.349,2.625,4.047-.023,8.218,1.208,12.1-1.067,3.934-2.3,8.178-2.706,12.1-.409,2.943,1.725,5.906,1.642,9.01,1.659,1.934.013,2.693-.943,2.749-2.781.066-2.312.212-4.625.368-6.935.6-8.876,1.231-7.27-6.682-8.17-2.565-.293-4.274-1.193-5.4-3.6-1.755-3.735-3.836-7.313-5.644-11.025a3.628,3.628,0,0,0-3.74-2.373c-4.43.1-8.868.116-13.3,0-2.287-.061-3,.905-2.958,3.056C599.311,215.335,599.25,220.174,599.253,225.008Zm-57.481,27.11a6.8,6.8,0,0,0,6.952,7.129,7.243,7.243,0,0,0,7.321-7.267,7.348,7.348,0,0,0-7.3-7.005A6.9,6.9,0,0,0,541.772,252.118Zm84.586.066a7.117,7.117,0,0,0-6.987-7.207,7.193,7.193,0,0,0-7.262,6.975,7.072,7.072,0,0,0,7.194,7.3A6.886,6.886,0,0,0,626.358,252.184Zm-42.129-4.158c-6.753,0-13.508-.018-20.261.023-.908.005-2.32-.426-2.423,1.039-.106,1.528,1.231,1.6,2.375,1.6q20.108.011,40.215.01c1.178,0,2.443-.113,2.4-1.6-.043-1.571-1.478-1.036-2.353-1.044C597.533,248.006,590.881,248.026,584.229,248.026Z" transform="translate(-521.752 -189.614)"/></svg>