<svg xmlns="http://www.w3.org/2000/svg" width="64.747" height="64.747" viewBox="0 0 64.747 64.747"><g transform="translate(-1 -1)"><path d="M33.374,65.747A32.374,32.374,0,1,1,65.747,33.374,32.374,32.374,0,0,1,33.374,65.747Zm0-60.431A28.057,28.057,0,1,0,61.431,33.374,28.057,28.057,0,0,0,33.374,5.316Z" transform="translate(0 0)" fill="#56ab00"/><path d="M20.183,35.957a2.158,2.158,0,0,1-1.576-.691L8.529,24.475A2.158,2.158,0,0,1,11.68,21.54l8.5,9.086L38.744,10.749a2.158,2.158,0,1,1,3.151,2.935L21.759,35.266A2.158,2.158,0,0,1,20.183,35.957Z" transform="translate(8.162 10.366)" fill="#56ab00"/></g></svg>