<svg xmlns="http://www.w3.org/2000/svg" width="59.034" height="68.011" viewBox="0 0 59.034 68.011"><g transform="matrix(0.999, 0.035, -0.035, 0.999, 2.36, -1.076)"><path d="M38.822,2.318C33.657-.981,11.058.082,3.882.5,1.248.654-.362,2.232.07,6.076A5.65,5.65,0,0,0,1.4,8.221l15.477,9.093c1.717.913,6.552,4.617,11.73,1.436L40.288,11.8a4.351,4.351,0,0,0,1.852-2.455C42.658,7.544,42.757,4.829,38.822,2.318Z" transform="translate(0 47.633)" fill="#6f75a5"/><path d="M22.127,13.014c-.679-.346-1.583-.813-2.593-1.337.264-1.951.582-4.355.7-5.459.144-1.232.079-2.339-1.074-2.813C18.1,2.866,12.017.055,12.017.055c-1.064-.346-3.655.959-3.936,3.33a9.606,9.606,0,0,0-.1,1.13c-.008-.009-.02-.01-.042.01-.125.115.321.9.723,1.552a8.165,8.165,0,0,0-6.113.134A6.915,6.915,0,0,0,.637,7.426a1.961,1.961,0,0,0-.4,2.388c2.444,4.472,11.692,21.4,11.766,21.619.084.253-6.649,13.833-2.612,17,6.657,5.224,9.686-2.5,10.3-4.866.025-.1,4.562-17.316,5.836-22.036C26.711,17.277,24.6,14.792,22.127,13.014ZM12.714,7.828a1.516,1.516,0,0,1-.091.238l-.385-.2A2.636,2.636,0,0,1,12.714,7.828Z" transform="translate(30.84)" fill="#6f75a5"/><path d="M10.977,2.349C3.112,6.758,2.409,7.3,2.409,7.3S-2.036,9.479,1.15,12.772L18.876,23.066s4.361,3.286,9.038.632c0,0,8.076-4.57,12.417-7.45s-.606-6.526-.606-6.526L23.3,1.091S18.843-2.06,10.977,2.349Z" transform="translate(0.178 40.881)" fill="#242b61"/><path d="M28.482,12.666l-1.922-.956.729-5.423a2.881,2.881,0,0,0-1.853-3.435L19.4.178C16.993-.746,16.34,2.22,16.34,2.22s-.261,2.183-.506,4.161l-1.088-.54c-5.477-2.865-7.849,4-7.849,4S1.008,30.1.259,32.911a7.156,7.156,0,0,0,2.553,7.5L18.56,48.281c4.392,3.109,7.293-4.56,7.293-4.56l6.084-22.376C33.791,14.941,28.482,12.666,28.482,12.666Z" transform="translate(22.623 0.819)" fill="#242b61"/></g></svg>