<?xml version="1.0" encoding="utf-8"?>
<!-- Generator: Adobe Illustrator 22.1.0, SVG Export Plug-In . SVG Version: 6.00 Build 0)  -->
<svg version="1.1" id="Layer_1" xmlns="http://www.w3.org/2000/svg" xmlns:xlink="http://www.w3.org/1999/xlink" x="0px" y="0px"
	 viewBox="0 0 59 68" style="enable-background:new 0 0 59 68;" xml:space="preserve">
<style type="text/css">
	.st0{fill:#911538;}
	.st1{fill:#D93362;}
</style>
<path class="st0" d="M39.4,50.2c-5-3.5-27.7-3.2-34.8-3c-2.6,0.1-4.3,1.6-4,5.4c0.2,0.8,0.7,1.6,1.3,2.2l15.1,9.6
	c1.7,1,6.4,4.8,11.7,1.8l11.9-6.5c0.9-0.5,1.6-1.4,1.9-2.4C43,55.5,43.2,52.8,39.4,50.2z"/>
<path class="st0" d="M54.8,13.8c-0.7-0.4-1.6-0.9-2.5-1.4c0.3-1.9,0.7-4.3,0.9-5.4c0.2-1.2,0.2-2.3-1-2.8c-1-0.6-7-3.6-7-3.6
	c-1.1-0.4-3.7,0.8-4,3.2C41.1,4,41,4.4,41,4.8c0,0,0,0,0,0c-0.1,0.1,0.3,0.9,0.7,1.6c-1.9-0.8-4.1-0.8-6.1-0.1
	c-0.7,0.3-1.4,0.7-2,1.1C32.9,8,32.7,9,33.1,9.8c2.3,4.6,10.9,21.8,11,22c0.1,0.3-7.1,13.6-3.2,16.9c6.5,5.5,9.8-2.2,10.5-4.5
	c0-0.1,5.2-17.1,6.6-21.8C59.2,18.2,57.2,15.6,54.8,13.8z M45.6,8.3c0,0.1-0.1,0.2-0.1,0.2l-0.4-0.2C45.3,8.3,45.4,8.3,45.6,8.3z"/>
<path class="st1" d="M12,42.5c-8,4.1-8.7,4.6-8.7,4.6s-4.5,2-1.4,5.4l17.3,10.9c0,0,4.2,3.4,9,0.9c0,0,8.2-4.3,12.7-7
	c4.4-2.7-0.4-6.5-0.4-6.5l-16.1-9.2C24.3,41.7,20,38.4,12,42.5z"/>
<path class="st1" d="M52.9,14.2l-1.9-1L52,7.8c0.4-1.4-0.3-3-1.7-3.5l-5.9-2.9c-2.4-1-3.1,1.9-3.1,1.9s-0.3,2.2-0.7,4.1l-1.1-0.6
	c-5.4-3.1-8,3.7-8,3.7s-6.6,20-7.4,22.8c-0.8,2.8,0.1,5.7,2.3,7.6l15.5,8.4c4.3,3.3,7.4-4.3,7.4-4.3L56.1,23
	C58.2,16.6,52.9,14.2,52.9,14.2z"/>
</svg>
