<svg xmlns="http://www.w3.org/2000/svg" width="16.297" height="20" viewBox="0 0 16.297 20"><g transform="translate(-750 -20)"><path d="M-147.578,78.209q-4.015.007-8.03,0c-.966,0-1.932,0-2.9,0-.165,0-.219-.054-.208-.213s-.008-.321.005-.48c.015-.182-.045-.249-.236-.244-.48.013-.96,0-1.44,0-.255,0-.258,0-.258.257q0,2.926,0,5.851,0,6.405,0,12.81h1.92c0-.061.011-.122.011-.184q0-4.015,0-8.03c0-.274,0-.273.271-.273H-147.6c.246,0,.255-.008.255-.243q0-4.513,0-9.026C-147.347,78.271-147.4,78.209-147.578,78.209Zm-1.941,7.574q-4.458-.007-8.916,0c-.276,0-.276,0-.276-.27q0-2.557,0-5.113c0-.249,0-.249.257-.25h8.916c.257,0,.257,0,.258.251,0,1.717,0,3.434,0,5.15C-149.275,85.74-149.338,85.783-149.519,85.783Z" transform="translate(913.644 -57.277)" fill="#242b61"/><rect width="8" height="2" transform="translate(750 38)" fill="#242b61"/></g></svg>