<svg xmlns="http://www.w3.org/2000/svg" width="33.915" height="33.915" viewBox="0 0 33.915 33.915"><g transform="translate(-679.564 -402)"><path d="M.011.193,45.387.057,45.379,2.5,0,2.637Z" transform="translate(681.426 401.958) rotate(45)" fill="#242b61"/><path d="M-11141.809-1500.051h0a14.95,14.95,0,0,1-9.766-4.763,14.956,14.956,0,0,1-3.989-10.187,14.915,14.915,0,0,1,4.278-10.488l5.549,5.516h-4.8v7.481l2.854-2.856,5.874,5.86v9.436Zm2.494,0h0v-10.458l-6.6-6.607,1.52-1.518,14.381,14.294a15,15,0,0,1-9.3,4.29Zm10.9-6.149h0l-7.11-7.067,2.083-2.08,2.854,2.856v-7.481h-7.479l2.855,2.856-2.088,2.086-12.136-12.063a14.884,14.884,0,0,1,8.874-2.9,14.9,14.9,0,0,1,10.605,4.394,14.9,14.9,0,0,1,4.393,10.6,14.9,14.9,0,0,1-2.85,8.8Z" transform="translate(11837.563 1933)" fill="#242b61"/></g></svg>