<svg xmlns="http://www.w3.org/2000/svg" width="32" height="34" viewBox="0 0 32 34"><g transform="translate(-8303 -5927)"><g transform="translate(8303 5929)" opacity="0.2"><path d="M16,0A16,16,0,1,0,32,16,16,16,0,0,0,16,0Zm0,4a11.649,11.649,0,0,1,11,8H5A11.649,11.649,0,0,1,16,4Zm0,14a2,2,0,1,1,2-2A2,2,0,0,1,16,18ZM4,16c5.465,0,9.907,5.469,10,12A12.227,12.227,0,0,1,4,16ZM18,28c.093-6.531,4.535-12,10-12A12.227,12.227,0,0,1,18,28Z" fill="#394c5f"/></g><path d="M3247-2024a15.9,15.9,0,0,1-11.314-4.686A15.9,15.9,0,0,1,3231-2040a15.894,15.894,0,0,1,4.686-11.313A15.9,15.9,0,0,1,3247-2056a15.9,15.9,0,0,1,11.313,4.686A15.9,15.9,0,0,1,3263-2040a15.9,15.9,0,0,1-4.686,11.314A15.9,15.9,0,0,1,3247-2024Zm12-16c-5.42,0-9.906,5.383-10,12a12.232,12.232,0,0,0,10-12Zm-24,0a12.233,12.233,0,0,0,10,12c-.094-6.617-4.579-12-10-12Zm12-1a2,2,0,0,0-2,2,2,2,0,0,0,2,2,2,2,0,0,0,2-2A2,2,0,0,0,3247-2041Zm0-11a11.639,11.639,0,0,0-11,8h22a11.638,11.638,0,0,0-11-8Z" transform="translate(5072 7983)" fill="#242b61"/></g></svg>