<svg xmlns="http://www.w3.org/2000/svg" width="31.506" height="16" viewBox="0 0 31.506 16"><g transform="translate(-355.045 -331.222)"><path d="M366.853,331.246c1.58,0,3.161.009,4.74,0a3.1,3.1,0,0,1,2.72,1.375c.78,1.1,1.6,2.175,2.384,3.274a1.681,1.681,0,0,0,1.215.709q3.363.506,6.717,1.07c1.567.263,2.129,1.106,1.856,2.7-.082.481-.178.962-.229,1.446a2.026,2.026,0,0,1-1.763,2.029.8.8,0,0,0-.7.64,3.769,3.769,0,0,1-6.977.681.942.942,0,0,0-.958-.557q-4.783.016-9.567,0a1.021,1.021,0,0,0-1.009.62,3.765,3.765,0,0,1-6.891-.567c-.163-.421-.3-.78-.825-.857A1.956,1.956,0,0,1,356,342.365c-.318-.892-.616-1.8-.85-2.711a2.624,2.624,0,0,1,.616-2.555c1.323-1.475,2.606-2.987,3.877-4.507a3.336,3.336,0,0,1,2.9-1.364C363.977,331.3,365.417,331.246,366.853,331.246Zm.09,1.623c-1.466,0-2.933.03-4.4-.013a1.9,1.9,0,0,0-1.639.75c-.862,1.04-1.757,2.052-2.628,3.084-1.835,2.175-1.831,2.177-.857,4.842.11.3.189.629.556.7.422.083.51-.282.665-.547a3.628,3.628,0,0,1,3.653-1.958,3.572,3.572,0,0,1,3.239,2.576.9.9,0,0,0,1.013.694c3.018-.016,6.035-.022,9.054,0a.907.907,0,0,0,1.026-.763,3.552,3.552,0,0,1,2.36-2.336,3.761,3.761,0,0,1,4.5,1.778c.161.262.254.609.668.566.484-.051.444-.461.51-.783.08-.393.1-.8.2-1.188.157-.642-.025-.941-.724-1.041-2.159-.311-4.308-.693-6.464-1.032a3.278,3.278,0,0,1-2.4-1.495c-.627-.962-1.371-1.847-2.006-2.8a2.194,2.194,0,0,0-2.1-1.049C369.762,332.909,368.352,332.869,366.943,332.869Zm13.2,12.724a2.14,2.14,0,0,0,2.2-2.072,2.176,2.176,0,0,0-4.351-.061A2.146,2.146,0,0,0,380.142,345.593Zm-20.3-2.162a2.033,2.033,0,0,0,2.057,2.162,2.064,2.064,0,0,0,2.192-2.118,2.126,2.126,0,0,0-2.109-2.144A2.1,2.1,0,0,0,359.841,343.431Z" fill="#242b61"/><path d="M370.113,338.919c1.713,0,3.425,0,5.138,0,.556,0,1.119.034,1.128.757.009.7-.556.841-1.1.849-1.887.028-3.774.02-5.66.023-1.423,0-2.845,0-4.268,0a4.639,4.639,0,0,1-.865-.062.783.783,0,0,1-.738-.906c.058-.5.42-.654.876-.654h5.487Z" transform="translate(-2.496 -2.173)" fill="#242b61"/></g></svg>