<svg xmlns="http://www.w3.org/2000/svg" width="32.381" height="34" viewBox="0 0 32.381 34"><path d="M2,8.476,13.317,19.81H2v4.857H18.174L29.508,36l2.04-2.024L4.024,6.452ZM31.952,19.81h2.429v4.857H31.952Zm-4.048,0h2.429v4.857H27.9ZM29.281,6.663A5.381,5.381,0,0,0,30.9,2.81H28.471a3,3,0,0,1-3,3V8.233a6.51,6.51,0,0,1,6.476,6.59V18.19h2.429V14.823A9,9,0,0,0,29.281,6.663Zm-7.043,6.185h2.477a3.12,3.12,0,0,1,3.19,3.319V18.19h2.429V15.616A5.374,5.374,0,0,0,24.715,10.5H22.238a3.216,3.216,0,0,1-3-3.238,2.865,2.865,0,0,1,3-2.833V2a5.424,5.424,0,1,0,0,10.848Zm4.048,11.706V19.81H21.542Z" transform="translate(-2 -2)" fill="#242b61"/></svg>