<svg xmlns="http://www.w3.org/2000/svg" width="128" height="128" viewBox="0 0 128 128"><rect width="128" height="128" fill="none"/><path d="M27.585,64a37.836,37.836,0,0,1,1.923-11.881L7.938,35.648a64.439,64.439,0,0,0-.009,56.684l21.558-16.5A37.861,37.861,0,0,1,27.585,64" fill="#fbbc05" fill-rule="evenodd"/><path d="M65.457,26.182a37.085,37.085,0,0,1,23.6,8.436L107.7,16A64.05,64.05,0,0,0,7.938,35.648L29.507,52.119a37.77,37.77,0,0,1,35.95-25.937" fill="#ea4335" fill-rule="evenodd"/><path d="M65.457,101.818A37.77,37.77,0,0,1,29.508,75.881L7.938,92.349A63.9,63.9,0,0,0,65.457,128a61.077,61.077,0,0,0,41.758-15.951L86.741,96.221c-5.777,3.639-13.052,5.6-21.284,5.6" fill="#34a853" fill-rule="evenodd"/><path d="M126.634,64a53.01,53.01,0,0,0-1.457-11.636H65.457V77.091H99.833a28.821,28.821,0,0,1-13.092,19.13l20.474,15.828c11.766-10.92,19.419-27.188,19.419-48.049" fill="#4285f4" fill-rule="evenodd"/></svg>