<?xml version="1.0" encoding="utf-8"?>
<!-- Generator: Adobe Illustrator 22.1.0, SVG Export Plug-In . SVG Version: 6.00 Build 0)  -->
<svg version="1.1" id="Layer_1" xmlns="http://www.w3.org/2000/svg" xmlns:xlink="http://www.w3.org/1999/xlink" x="0px" y="0px"
	 viewBox="0 0 56.7 56.7" style="enable-background:new 0 0 56.7 56.7;" xml:space="preserve">
<path d="M28.1,3.6c-13.6,0-24.6,11-24.6,24.6c0,13.6,11,24.6,24.6,24.6c13.6,0,24.6-11,24.6-24.6C52.7,14.6,41.7,3.6,28.1,3.6z
	 M41.9,38c-0.3,0.8-1.5,2.3-2.4,3c-0.8,0.6-1.3,0.8-2.1,0.8c-0.6,0-0.8,0-1.6-0.3c-6-2.5-10.8-6.2-14.6-11.2c-2-2.6-3.5-5.4-4.5-8.2
	c-0.6-1.7-0.6-2.4-0.1-3.2c0.2-0.4,1.1-1.2,1.8-1.7c1.1-0.8,1.6-1.1,2-1.2c0.3-0.1,0.8,0,1.1,0.1c0.1,0.1,0.4,0.2,0.5,0.3
	c0.8,0.5,3.1,3.4,3.8,4.9c0.4,0.8,0.6,1.4,0.4,1.9c-0.1,0.5-0.4,0.7-1.4,1.6c-0.4,0.3-0.8,0.7-0.8,0.8c-0.2,0.2-0.3,0.7-0.3,1
	c0,0.7,0.5,2,1.1,3c0.5,0.8,1.3,1.8,2.1,2.5c1,0.9,1.8,1.5,2.8,2c1.2,0.6,2,0.8,2.6,0.5c0.1-0.1,0.3-0.1,0.3-0.2
	c0,0,0.4-0.4,0.7-0.9c0.7-0.9,0.8-1,1.3-1.2c0.6-0.2,1.2-0.1,1.8,0.2c0.5,0.2,1.5,0.9,2.2,1.3c0.9,0.6,2.7,2.1,3,2.4
	C42.1,36.5,42.2,37.2,41.9,38z"/>
</svg>
