<svg xmlns="http://www.w3.org/2000/svg" width="34.16" height="34.416" viewBox="0 0 34.16 34.416"><g transform="translate(-505.502 -388.5)"><path d="M-11135.319-1501a1.59,1.59,0,0,1-.439-.059,13.434,13.434,0,0,1-1.744-.633v-.1l.538-.211.034-.013c.229-.091.491-.194.741-.29l1.107-.419.006,0,.275-.1.711-.269a.783.783,0,0,1,.257-.061c.138,0,.2.088.258.347a1.417,1.417,0,0,1-.772,1.559A2.11,2.11,0,0,1-11135.319-1501Zm-7.794-.008a1.975,1.975,0,0,1-1.129-.361,1.445,1.445,0,0,1-.674-1.092,1.458,1.458,0,0,1,.525-1.182,2.332,2.332,0,0,1,.568-.361l7.11-3.359,3.542-1.673,3.155,3.136c-4.556,1.754-8.556,3.3-12.229,4.715A2.424,2.424,0,0,1-11143.113-1501.009Zm-1.888-3.64a.662.662,0,0,1-.246-.053c-.608-.241-1.229-.485-1.828-.721l-.1-.04c-1.239-.487-2.52-.99-3.784-1.506a1.973,1.973,0,0,1-1.315-1.809,1.939,1.939,0,0,1,1.092-1.758,2.481,2.481,0,0,1,1.314-.359h.083a2.809,2.809,0,0,1,1.159.266c1.608.763,3.235,1.531,4.808,2.275l1.055.5,1.935.915c.019.009.038.016.06.023.065.023.134.046.143.122.016.105-.065.135-.145.163-.02.007-.038.014-.055.022-.658.319-1.327.641-1.975.953-.6.288-1.294.623-1.976.954A.481.481,0,0,1-11145-1504.649Zm17.481-2.218h0l-3.3-3.28.515-.243.523-.247a2.213,2.213,0,0,1,.925-.243c.041,0,.082,0,.12.005h.094a2.774,2.774,0,0,1,1.784.645,1.9,1.9,0,0,1,.745,1.5,1.92,1.92,0,0,1-.784,1.5,3.022,3.022,0,0,1-.622.363Zm-11.843-.716h-.056l-.056,0a.714.714,0,0,1-.313-.078q-1.576-.756-3.15-1.506l-.475-.218-.037-.017c-.488-.224-.994-.456-1.49-.681a.646.646,0,0,1-.179-.115c-.034-.018-.066-.033-.093-.045a.437.437,0,0,1-.269-.541,8.566,8.566,0,0,0,.117-1.005,26.39,26.39,0,0,0-.168-4.771c-.3.362-.572.668-.817.935a10.823,10.823,0,0,1-8.246,3.653l-.229,0a1.174,1.174,0,0,1-1.176-1.246c.008-.655.488-2.206,1.218-2.206a8.432,8.432,0,0,1,1.266.1l.124.017a6.144,6.144,0,0,0,.864.083,2.8,2.8,0,0,0,1.6-.529,12.153,12.153,0,0,0,2.666-2.628l.044-.054c.3-.364,1.12-1.26,1.718-1.914l.09-.1c.185-.2.341-.371.443-.485a2.349,2.349,0,0,1,.447-.385l11.4,11.333c-.654.3-1.231.562-1.767.808-1.2.572-2.207,1.052-3.163,1.512A.7.7,0,0,1-11139.362-1507.583Zm15.12-4.388a10.822,10.822,0,0,1-8.246-3.653c-.271-.295-.546-.609-.817-.935a25.12,25.12,0,0,0-.2,3.741l-8.871-8.818c.986-.007,1.989-.007,2.96-.007,1.013,0,2.061,0,3.088.008.2,0,.392-.012.578-.022l.116-.006.039,0h.01c.256-.013.5-.026.733-.026a2.449,2.449,0,0,1,1.987.762l.446.488.035.038c.581.635,1.46,1.6,1.77,1.971l.057.068a12.042,12.042,0,0,0,2.65,2.614,2.809,2.809,0,0,0,1.6.529,6.144,6.144,0,0,0,.864-.083l.124-.017a8.343,8.343,0,0,1,1.266-.1c.729,0,1.21,1.551,1.218,2.206a1.178,1.178,0,0,1-1.176,1.246Zm-14.969-10.647a4.217,4.217,0,0,1-2.973-1.208,4.126,4.126,0,0,1-1.244-2.93,4.172,4.172,0,0,1,1.224-2.988,4.222,4.222,0,0,1,3.02-1.257,4.223,4.223,0,0,1,4.182,4.2,4.1,4.1,0,0,1-1.2,2.936A4.2,4.2,0,0,1-11139.211-1522.618Z" transform="translate(11662 1920)" fill="#242b61" stroke="rgba(0,0,0,0)" stroke-miterlimit="10" stroke-width="1"/><path d="M.011.193,45.387.057,45.379,2.5,0,2.637Z" transform="translate(507.426 388.958) rotate(45)" fill="#242b61"/></g></svg>