<svg xmlns="http://www.w3.org/2000/svg" width="31.726" height="19.321" viewBox="0 0 31.726 19.321"><g transform="translate(11157.415 -76.585)" fill="#f4f7fc"><path d="M -11129.208984375 95.19890594482422 L -11129.5625 94.84524536132813 L -11141.55078125 82.85564422607422 L -11153.541015625 94.84527587890625 L -11153.89453125 95.19879913330078 L -11154.248046875 94.84529876708984 L -11156.3544921875 92.73912048339844 L -11156.7080078125 92.38555908203125 L -11156.3544921875 92.031982421875 L -11141.9677734375 77.64570617675781 L -11141.6142578125 77.29206085205078 L -11141.5517578125 77.35447692871094 L -11141.4892578125 77.29203796386719 L -11141.1357421875 77.64572143554688 L -11126.75 92.03199005126953 L -11126.396484375 92.38549041748047 L -11126.75 92.73902893066406 L -11128.85546875 94.84520721435547 L -11129.208984375 95.19890594482422 Z" stroke="none"/><path d="M -11141.6142578125 77.999267578125 L -11156.0009765625 92.38553619384766 L -11153.89453125 94.49172210693359 L -11141.55078125 82.14852905273438 L -11129.208984375 94.49172210693359 L -11127.103515625 92.38553619384766 L -11141.4892578125 77.999267578125 L -11141.5517578125 78.06180572509766 L -11141.6142578125 77.999267578125 M -11141.4892578125 76.58481597900391 L -11140.7822265625 77.29217529296875 L -11126.396484375 91.67845153808594 L -11125.689453125 92.38542938232422 L -11126.396484375 93.092529296875 L -11128.501953125 95.19870758056641 L -11129.208984375 95.90608978271484 L -11129.916015625 95.19879150390625 L -11141.55078125 83.56276702880859 L -11153.1875 95.19883728027344 L -11153.89453125 95.90586853027344 L -11154.6015625 95.19886779785156 L -11156.7080078125 93.09268951416016 L -11157.4150390625 92.38556671142578 L -11156.7080078125 91.67842102050781 L -11142.3212890625 77.29215240478516 L -11141.6142578125 76.5848388671875 L -11141.5517578125 76.64714050292969 L -11141.4892578125 76.58481597900391 Z" stroke="none" fill="#f4f7fc"/></g></svg>