<svg xmlns="http://www.w3.org/2000/svg" width="34.442" height="27" viewBox="0 0 34.442 27"><g transform="translate(-439 -385.795)"><path d="M405.737,165.477c7.424,0,6.556.013,13.98-.012a2.913,2.913,0,0,1,2.968,1.643c.9,1.923-.482,3.891-2.809,3.952s-4.743.043-7.764,0c-.927-.012-1.331.274-1.313,1.252.043,2.416.038,4.834,0,7.251-.015,1.016-10.139.914-10.143.142-.014-2.5-.036-5.007.01-7.51.02-1.1-.622-1.129-1.426-1.127-5.18.012-2.067,0-7.246.009a3.378,3.378,0,0,1-2.8-1.063,2.621,2.621,0,0,1-.4-2.912,2.658,2.658,0,0,1,2.578-1.626c4.144,0-.005,0,4.139,0Z" transform="translate(50.48 232.486)" fill="#242b61"/><path d="M462.443,129.612a5.4,5.4,0,0,1-5.577-5.536,5.593,5.593,0,0,1,5.515-5.541A5.5,5.5,0,0,1,468,123.941,5.376,5.376,0,0,1,462.443,129.612Z" transform="translate(-5.889 267.26)" fill="#242b61"/></g></svg>