<svg xmlns="http://www.w3.org/2000/svg" width="52.638" height="30" viewBox="0 0 52.638 30"><g transform="translate(-993 -877)"><path d="M15.5,2A10.492,10.492,0,0,0,5,12.5C5,20.375,15.5,32,15.5,32S26,20.375,26,12.5A10.492,10.492,0,0,0,15.5,2Zm0,14.25a3.75,3.75,0,1,1,3.75-3.75A3.751,3.751,0,0,1,15.5,16.25Z" transform="translate(1019.638 875)" fill="#242b61"/><g transform="translate(0 2)"><circle cx="3" cy="3" r="3" transform="translate(993 892)" fill="#242b61"/><circle cx="3" cy="3" r="3" transform="translate(1001 899)" fill="#242b61"/><circle cx="3" cy="3" r="3" transform="translate(1009 892)" fill="#242b61"/><circle cx="3" cy="3" r="3" transform="translate(1017 899)" fill="#242b61"/></g></g></svg>