<svg xmlns="http://www.w3.org/2000/svg" viewBox="0 0 114.934 69"><path d="M462.157,225.473c10.072.163,7.755-1.286,11.517,7.177.936,2.113,1.76,4,4.782,3.778,1.738-.129,2.372,1.18,2.909,2.451,1.046,2.463,2.281,4.871,3.086,7.4.776,2.442,2.24,2.815,4.624,2.27a46.754,46.754,0,0,1,15.311-.626c2.394.247,4.505.924,4.386,3.559-.116,2.61-2.262,3.447-4.663,3.17a50.547,50.547,0,0,0-11.9.2c-1.29.154-3.392.024-3.025,1.879.354,1.773.2,4.338,3.43,4.432a29.647,29.647,0,0,1,5.348.527c7.816,1.683,13.387,8.126,13.625,15.6.235,7.439-5,14.237-12.6,16.378a18.26,18.26,0,0,1-20.363-7.367c-4.138-6.343-3.079-14.472,2.507-19.985.991-.981,2.909-1.6,2.407-3.381-.412-1.463-.534-3.4-2.217-3.989-1.4-.491-2.52.945-3.585,1.758a32.018,32.018,0,0,0-11.375,17.23c-.766,2.67-2.024,3.772-5.042,3.688-6.172-.178-12.357-.142-18.532-.015-2.822.057-4.27-.65-4.376-3.58-.048-1.364.441-3.911-2.146-3.818-2.619.093-4.174,1.448-4.312,4.45-.38,8.291-6.96,14.614-15.774,15.694-7.729.945-15.9-3.86-18.513-10.893a16.364,16.364,0,0,1,7.446-19.882,18.721,18.721,0,0,1,22.258,2.932c.534.524.972,1.138,1.551,1.608,1.535,1.252,3.038.379,4.177-.467,1.361-1.012-.013-1.954-.689-2.707-6.764-7.539-15.941-11.164-25.74-13.726-2.349-.617-4.772-.988-7.134-1.563-2.014-.494-3.134-1.761-2.709-3.742.45-2.1,2.027-3.056,4.267-2.713a110.566,110.566,0,0,1,13.464,3.137c9.979,2.839,20.1,4.01,30.416,1.641a35.8,35.8,0,0,0,16.933-8.921,19.912,19.912,0,0,1,2.867-2.384c.866-.554,2.452-.364,1.9-2.074a2.953,2.953,0,0,0-3-2.33c-2.188-.03-4.376-.027-6.565-.081-2.561-.063-4.785-.777-4.688-3.622.093-2.725,2.352-3.1,4.717-3.089C458.811,225.482,460.484,225.476,462.157,225.473Zm-28.308,30.94c4.592,3.522,6.108,10.965,14.342,6.717,1.686-.87,3.562.19,4.257,2.089.653,1.794-.335,3.047-1.934,3.857-1.123.569-2.372.915-3.556,1.385s-2.539.819-2.05,2.5c.409,1.415,1.512,1.828,2.925,1.83,2.954,0,5.911-.042,8.865.03a3.722,3.722,0,0,0,4.016-2.637,37.909,37.909,0,0,1,16.147-19.208c.859-.515,2.1-1.072,1.612-2.159-1.159-2.583-1.01-6.277-4.141-7.328a8.665,8.665,0,0,0-8.9,1.7,40.246,40.246,0,0,1-20.353,9.646C441.588,255.441,438.058,255.832,433.849,256.413Zm70.456,21.454a10.112,10.112,0,0,0-7.787-9.6c-2.011-.488-2.79-.126-1.979,1.852.734,1.794,1.49,3.583,2.243,5.371.9,2.128.933,4.167-1.622,5.193-2.594,1.039-4.093-.385-5-2.562-.746-1.788-1.5-3.58-2.307-5.344-.29-.626-.467-1.538-1.419-1.5-.85.033-1.168.849-1.57,1.451a9.446,9.446,0,0,0,.766,11.148,10.821,10.821,0,0,0,11.4,3.2C501.441,285.661,504.27,282.082,504.305,277.867Zm-90.259,9.754a10.667,10.667,0,0,0,9.972-6.226c.373-.861,1.142-1.83.248-2.667-.74-.7-1.709-.057-2.533.184-2.082.617-4.119,1.382-6.223,1.924-1.966.5-3.672-.027-4.373-1.951-.679-1.864.125-3.363,2.014-4.155,2-.834,4.077-1.475,6.12-2.207.817-.292,2.037-.337,2.195-1.21.206-1.12-1.059-1.529-1.9-2.017a10.884,10.884,0,0,0-11.906.879,9.552,9.552,0,0,0-3.215,10.772A10.51,10.51,0,0,0,414.046,287.621Z" transform="translate(-396.665 -225.469)"/></svg>