<svg xmlns="http://www.w3.org/2000/svg" width="659.557" height="313.057" viewBox="0 0 659.557 313.057"><g transform="translate(-82.982 257.986)"><path d="M119.615-252.345h0a3.647,3.647,0,0,1-3.636-3.639v-15.131a3.646,3.646,0,0,1,3.636-3.636h0a3.648,3.648,0,0,1,3.639,3.636v15.131a3.649,3.649,0,0,1-3.639,3.639Z" transform="translate(51.911 16.765)" fill="#323254"/><path d="M281.478-252.345h0a3.647,3.647,0,0,1-3.636-3.639v-15.131a3.646,3.646,0,0,1,3.636-3.636h0a3.649,3.649,0,0,1,3.639,3.636v15.131a3.649,3.649,0,0,1-3.639,3.639Z" transform="translate(311.02 16.765)" fill="#323254"/><circle cx="50.923" cy="50.923" r="50.923" transform="translate(201.606 -46.775)" fill="#001d34"/><circle cx="20.591" cy="20.591" r="20.591" transform="translate(223.409 4.147) rotate(-45)" fill="#eeebef"/><g transform="translate(219.2 -193.333)" opacity="0.15"><path d="M.5,74.751V.505l445.457,4.5L457.1,20.564l7.289,14.107,6.59,13.417,6.541,15.337Z" fill="#4baeff"/><path d="M1,1.01V74.239l475.773-11.3L470.527,48.3l-6.583-13.4-7.27-14.07L445.7,5.505,1,1.01M0,0,446.215,4.51,457.529,20.3l7.307,14.142,6.6,13.435,6.835,16.028L0,75.263Z" fill="#707070"/></g><path d="M91.96,219.38H10.229A287.074,287.074,0,0,1,3,181.928C1.464,169.9.508,157.116.158,143.921A520.3,520.3,0,0,1,3.414,73.086c2.444-22,5.777-40.713,8.142-52.538C13.949,8.6,15.923.864,16.141.022V0H555.829a233.258,233.258,0,0,1,25.639,34.379,272.141,272.141,0,0,1,18.687,36.565,342.731,342.731,0,0,1,20.88,71.339c1.835,10.044,3.306,20.339,4.37,30.6.852,8.25,1.448,16.473,1.772,24.44.536,13.215.157,21.176.112,22.04v.016H225.416L213.6,196.322H103.775ZM336.188,24.565a3.763,3.763,0,0,0-3.758,3.759v46.9a3.763,3.763,0,0,0,3.758,3.758h54.921a3.763,3.763,0,0,0,3.759-3.758v-46.9a3.764,3.764,0,0,0-3.759-3.759Zm-95.638,0a4.3,4.3,0,0,0-4.3,4.3V74.69a4.3,4.3,0,0,0,4.295,4.295H294.4a4.3,4.3,0,0,0,4.295-4.295V28.859a4.3,4.3,0,0,0-4.3-4.3Zm-96.174-.289a4.3,4.3,0,0,0-4.3,4.3V74.4a4.3,4.3,0,0,0,4.295,4.295h53.849a4.3,4.3,0,0,0,4.3-4.295V28.571a4.3,4.3,0,0,0-4.295-4.3Zm426.464,0a5.627,5.627,0,0,0-5.349,7.371l16.958,43.169a5.607,5.607,0,0,0,5.346,3.88h14.622c-5.017-14.159-9.212-23.6-14.966-33.663-5.355-9.365-13.061-20.656-13.133-20.759Zm-112.824,0a13.764,13.764,0,0,0-13.747,13.75V64.944a13.763,13.763,0,0,0,13.747,13.748h98.69a3.729,3.729,0,0,0,3.581-4.784L546.448,26.954a3.731,3.731,0,0,0-3.58-2.679Z" transform="translate(94.093 -207.834)" fill="#f8f8f8" stroke="#323254" stroke-miterlimit="10" stroke-width="1.138"/><path d="M656.653-238.393H89.709a27.824,27.824,0,0,1,27.743-27.743H628.913a27.823,27.823,0,0,1,27.74,27.743Z" transform="translate(9.858 30.556)" fill="#fff" stroke="#323254" stroke-miterlimit="10" stroke-width="1.138"/><path d="M163.466-143.049H104.839A17.807,17.807,0,0,1,87.083-160.8h0a17.807,17.807,0,0,1,17.756-17.756h58.627A17.807,17.807,0,0,1,181.219-160.8h0A17.807,17.807,0,0,1,163.466-143.049Z" transform="translate(5.654 170.747)" fill="#fff" stroke="#323254" stroke-miterlimit="10" stroke-width="1.138"/><path d="M372.773-143.049H320.849A17.807,17.807,0,0,1,303.093-160.8h0a17.807,17.807,0,0,1,17.756-17.756h51.925A17.807,17.807,0,0,1,390.529-160.8h0a17.807,17.807,0,0,1-17.756,17.751Z" transform="translate(351.441 170.747)" fill="#fff" stroke="#323254" stroke-miterlimit="10" stroke-width="1.138"/><circle cx="50.923" cy="50.923" r="50.923" transform="translate(551.131 -46.775)" fill="#001d34"/><rect width="462.569" height="5.935" rx="0.943" transform="translate(151.755 -255.907)" fill="#323254"/><rect width="234.544" height="14.797" rx="2.837" transform="translate(316.587 4.148)" fill="#fff" stroke="#323254" stroke-miterlimit="10" stroke-width="1.138"/><circle cx="20.591" cy="20.591" r="20.591" transform="translate(572.934 4.147) rotate(-45)" fill="#eeebef"/><path d="M705.439-162.606l-15.763-15.051a110.55,110.55,0,0,0-76.346-30.6H89.47a5.919,5.919,0,0,1-5.919-5.919h0a5.919,5.919,0,0,1,5.919-5.917H616.29a110.547,110.547,0,0,1,76.344,30.6l20.127,19.222a5.3,5.3,0,0,1,1.077,6.216h0A5.3,5.3,0,0,1,710-161.214a5.3,5.3,0,0,1-4.565-1.392Z" transform="translate(0 104.268)" fill="#fff" stroke="#323254" stroke-miterlimit="10" stroke-width="1.138"/><path d="M333.015-151.1h0a10.5,10.5,0,0,1-10.466-10.463V-190.57a10.5,10.5,0,0,1,10.466-10.466h0a10.5,10.5,0,0,1,10.466,10.466v29.007A10.5,10.5,0,0,1,333.015-151.1Z" transform="translate(382.586 134.776)" fill="#667389" stroke="#323254" stroke-miterlimit="10" stroke-width="1.138"/><path d="M332.175-151.1h0a5.618,5.618,0,0,1-5.6-5.6v-38.731a5.618,5.618,0,0,1,5.6-5.6h0a5.618,5.618,0,0,1,5.6,5.6V-156.7A5.618,5.618,0,0,1,332.175-151.1Z" transform="translate(389.028 134.776)" fill="#f8e780" stroke="#323254" stroke-miterlimit="10" stroke-width="1.138"/><line y2="86.187" transform="translate(504.496 -82.531)" fill="none" stroke="#323254" stroke-miterlimit="10" stroke-width="1.138"/><line x2="21.454" transform="translate(518.922 -76.983)" fill="none" stroke="#323254" stroke-miterlimit="10" stroke-width="1.138"/><line x2="49.905" transform="translate(129.573 -91.656)" fill="none" stroke="#323254" stroke-miterlimit="10" stroke-width="1.138"/><line x2="49.905" transform="translate(129.573 -83.025)" fill="none" stroke="#323254" stroke-miterlimit="10" stroke-width="1.138"/><line x2="49.905" transform="translate(129.573 -74.394)" fill="none" stroke="#323254" stroke-miterlimit="10" stroke-width="1.138"/><line x2="49.905" transform="translate(129.573 -65.763)" fill="none" stroke="#323254" stroke-miterlimit="10" stroke-width="1.138"/><line x2="49.905" transform="translate(129.573 -57.132)" fill="none" stroke="#323254" stroke-miterlimit="10" stroke-width="1.138"/><path d="M-13139,136.34a7.009,7.009,0,0,1-7-7V85a7.007,7.007,0,0,1,7-7h49.163a7.008,7.008,0,0,1,7,7v3.7h-43.53a7.009,7.009,0,0,0-7,7v40.64Z" transform="translate(13379.624 -265.224)" fill="#000846"/><path d="M-13139,136.34a7.009,7.009,0,0,1-7-7V85a7.007,7.007,0,0,1,7-7h49.163a7.008,7.008,0,0,1,7,7v3.7h-43.53a7.009,7.009,0,0,0-7,7v40.64Z" transform="translate(13475.624 -265.224)" fill="#000846"/><path d="M-13139,136.34a7.009,7.009,0,0,1-7-7V85a7.007,7.007,0,0,1,7-7h49.163a7.008,7.008,0,0,1,7,7v3.7h-43.53a7.009,7.009,0,0,0-7,7v40.64Z" transform="translate(13571.624 -265.224)" fill="#000846"/></g></svg>