<svg xmlns="http://www.w3.org/2000/svg" width="1526.687" height="271.86" viewBox="0 0 1526.687 271.86"><defs><style>.a{fill:#243f3e;}.b{fill:#2c4e4a;}.c{fill:#345c55;}.d{fill:#3f6f70;}.e{fill:#2b4c49;}.f{fill:#38635d;}.g{fill:#29491f;}.h{fill:#315b27;}.i{fill:#386d2d;}.j{fill:#457c35;}.k{fill:#4f8a3a;}.l{fill:#569e4b;}</style></defs><g transform="translate(-63.823 -540.24)"><g transform="translate(201.133 612.493)"><path class="a" d="M214.627,252.791c-3.99,17.308-12.623,35.248-20.787,49.63h0a48.839,48.839,0,0,0,15.862-9.113c-.969,5.447-3.857,9.571-5.173,14.992,6.939-2.606,12.329-8.141,16.4-11.563.454,4.494-1.164,9.216-1.74,13.649,5.352-3.845,8.824-6.874,11.17-13.336,1.141,4.524,3.25,10.655,6.153,14.24,1.335-3.235,4.242-8.27,5.573-13.87,3.555,4.318,5.783,9.579,10.8,12.245.267-5.142.481-9.178.744-14.317,4.654,2.991,8.209,7.3,13.615,8.953-.847-3.483-2.8-7.908-3.86-11.894,3.479,4.223,8.637,5.959,13.039,7.221-6.409-8.919-11.715-20.3-16.369-29.812-4.082-7.427-4.643-15.8-7.694-23.171Z" transform="translate(-193.84 -159.768)"/><path class="b" d="M213.993,241.824c-2.7,12.222-11.212,30.667-18.62,40.928,4.891-1.457,9.861-4.635,14.443-6.806-.557,4.1-3.17,8.08-4.429,12.482,6.153-2.026,9.224-5.566,13.043-12.306,1.522,3.857,3.708,9.125,5.585,12.657,2.193-2.632,3.262-7.614,5.379-12.314a64.836,64.836,0,0,0,5.726,12.085c1.209-3.372,2.678-9.083,3.86-12.112,3.159,5.318,5.76,8.2,9.094,10.09a43.49,43.49,0,0,0-.729-12.4,45.543,45.543,0,0,0,12.318,7.511c-6.47-14.252-8.774-22.9-11.414-38.033Z" transform="translate(-189.525 -173.338)"/><path class="c" d="M215.971,236.009c-.061,7.725-3.143,17.525-5.909,24.418-3.067,8.37-5.623,15.682-12.612,24.59,4.715-1.472,8.679-5.043,13.069-7.046-.023,3.773-1.247,7.492-2.117,11.051,3.5-4.459,7.305-8.377,10.8-12.833,1.293,4.875.458,11.013,2.449,15.583,1.678-5.753,4.505-10.586,6.855-16.129,3.365,7.9,5.287,10.575,8.728,13.68-1.038-6.413-.561-8.961-1.03-13.107,3.22,4.116,7.24,9.3,12.486,10.78a235.277,235.277,0,0,1-8.442-29.118,239.906,239.906,0,0,0-8.076-26.352Z" transform="translate(-183.679 -202.321)"/><path class="d" d="M220.35,224.512c-2.564,2.571-3.162,7.3-4.341,10.632-3.2,9.064-5.261,18.833-9.472,27.5-2.117,4.356-4.429,9.216-7.355,12.669a30.272,30.272,0,0,0,10.842-6.992,39.844,39.844,0,0,1-1.644,11.765,68.317,68.317,0,0,0,7.7-12.65c.942,5.028,1.682,8.843,2.472,13.523,2.819-4.662,3.342-6.523,4.917-13.653A75.16,75.16,0,0,0,229.41,279.8c.381-4.1.9-8.7.08-12.7,2.758,3.063,6.84,8.64,8.934,9.743a103.918,103.918,0,0,1-8.019-22.824c-1.362-6.485-3.029-12.909-4.406-19.394-.492-2.3-2.167-10.662-4-10.754A2.067,2.067,0,0,0,220.35,224.512Z" transform="translate(-178.804 -223.871)"/></g><g transform="translate(318.096 565.392)"><path class="e" d="M201.47,249.406c1.156,8.3-14.031,25.166-20.531,31.64-2.464,2.716-17.163,13.771-15.56,16.835,2.56,4.9,30.087,4.887,35.946,5.974,20.123,4.04,40.467,5.463,60.754,7.477,7.015.588,12.383,3.1,18.982,4.242,5.119,1.019,10.342.874,15.465,1.9-4.482-8.576-11.608-16.8-16.453-25.4-4.833-8.9-8.919-17.735-14.134-26.375-3.891-6.767-8.247-16.8-17.288-19.909-9.407-3.132-17.216,1.183-25.979-.729l-.736-.069Z" transform="translate(-165.257 -141.406)"/><path class="f" d="M191.741,263.5c-.977,4.307-3.468,8.488-5.94,12.379-4.322,7.836-8.7,16.243-15.084,23.022,6.722-.015,13.409-6.771,17.159-11.429a74.014,74.014,0,0,1-8.751,16.827c8.553-3.67,13.42-10.578,18.582-17.46a69.386,69.386,0,0,1-3.62,17.552c5.474-3.338,8.869-10.956,11.181-16.617-.191,5.84-1.339,12.181-.614,18.1,3.78-4.948,5.257-11.555,6.683-17.582-.847,6.367,3.769,13.2,7.343,17.891.591-6.977-.263-14.954,1.541-21.828.977,6.519,6.855,12.879,11.009,17.914a144.328,144.328,0,0,1,.08-19.024c2.514,6.363,10.414,10.544,12.375,16.27-4.154-5.032-2.235-13.363-4.5-19.116a46.32,46.32,0,0,0,18.8,19.741c-9.979-8.453-30.293-82.487-49.939-63.359a44.077,44.077,0,0,0-6.1,7.1Z" transform="translate(-149.886 -172.293)"/><path class="e" d="M194.485,248.923a199.193,199.193,0,0,1-21.412,32.734,50.328,50.328,0,0,0,22.614-14.485c-2.033,5.978-6.916,13.176-11.582,17.754,6.924-2.339,15.068-8.385,18.036-14.572-.523,6.1-5.783,14.153-4.147,20.142,5.825-3.9,10.452-15.221,11.021-21.9a67.227,67.227,0,0,0,2.056,15.4c2.354-6.241,2.319-12.978,3.487-19.612,2.9,9.026,4.788,15.629,10.845,23.457a124.971,124.971,0,0,0-.854-18.811c.752,5.627,6.023,11.929,9.621,16.335.469-5.524-.458-12.627-.877-18.521,2.541,6.073,9.159,14.534,15.328,17.4-8.183-11.524-15.065-24.105-22.3-36.137-3.5-5.57-4.685-13.279-11.131-16.461-4.986-2.468-12.055-1.9-14.675,3.738Z" transform="translate(-143.257 -181.806)"/><path class="f" d="M198.874,231.3c-.149,12.577-14.408,29.526-24.17,36.6,7.069-.576,13.1-6.794,17.46-11.4-3.647,7-7.9,13.962-13.275,19.657A38.161,38.161,0,0,0,200.8,255.472c-.263,6.71-.523,13.42.473,19.657,3.552-5.856,2.934-12.928,5.592-19.142-1.125,6.054,3.12,13.725,6.363,18.688.82-6.077-1.041-12.97.69-18.971,1.434,8.32,12.081,12.436,18.414,17.075-2.621-5.2-7.1-9.968-8.755-15.675,2.834,2.583,6.348,4.349,9.216,6.638-1.48-4.227-6.951-8.2-9.663-12.238-3.3-4.376-4.7-9.468-6.706-14.622-2.213-6.332-6.966-18.734-15.522-11.555Z" transform="translate(-138.666 -201.779)"/><path class="e" d="M201.067,217.553c-1.633,4.845-2.96,9.7-5.478,14.179-4.333,7.828-11.089,11.94-16.838,18.483,3.712-.565,8.69-1.61,11.364-4.307-3.5,5.261-7.355,11.086-12.024,15.667,8.789-2.769,11.456-8.984,16.85-14.969-.771,5.5-.557,10.2-.717,15.751,3.811-1.728,5.081-9.525,6.008-13.252.614,3.567,2.617,8.709,5.131,11.559.42-4.948-.076-9.964.034-14.931,2.831,6.39,9.678,8.434,14.866,12.093-5.192-7.179-13.222-13.417-16.472-21.889a37.432,37.432,0,0,1-1.957-16.556Z" transform="translate(-129.133 -217.553)"/></g><g transform="translate(1458.424 553.218)"><path class="e" d="M71.841,246.462c1.549,8.24-12.825,25.811-19.005,32.582-2.331,2.831-16.487,14.572-14.744,17.563,2.792,4.772,30.293,3.441,36.194,4.246,20.291,3.082,40.677,3.532,61.04,4.581,7.034.252,12.516,2.495,19.162,3.323,5.165.774,10.372.389,15.541,1.156-4.887-8.354-12.39-16.213-17.647-24.582-5.245-8.656-9.754-17.285-15.373-25.666-4.211-6.58-9.045-16.392-18.223-19.062-9.545-2.686-17.132,2-25.978.507,0,0-.374-.019-.744-.034Z" transform="translate(-37.943 -136.887)"/><path class="f" d="M62.343,259.875c-.767,4.349-3.063,8.644-5.337,12.65-3.952,8.026-7.923,16.64-13.973,23.716,6.714-.339,13.066-7.4,16.594-12.242a73.751,73.751,0,0,1-7.942,17.227c8.373-4.074,12.9-11.2,17.735-18.322a69.724,69.724,0,0,1-2.781,17.7c5.306-3.6,8.335-11.372,10.372-17.128.088,5.84-.752,12.226.248,18.1,3.544-5.127,4.7-11.8,5.84-17.884-.546,6.4,4.395,13,8.186,17.517.256-7-.977-14.916.5-21.866,1.286,6.458,7.458,12.531,11.849,17.357a144.639,144.639,0,0,1-.824-19.005c2.819,6.237,10.906,10.037,13.134,15.66-4.387-4.826-2.869-13.237-5.4-18.872a46.329,46.329,0,0,0,19.722,18.822c-10.369-7.973-34.192-80.949-52.9-60.91a43.86,43.86,0,0,0-5.753,7.378Z" transform="translate(-23.616 -167.34)"/><path class="e" d="M64.879,244.91A198.726,198.726,0,0,1,45.05,278.629a50.311,50.311,0,0,0,21.9-15.545c-1.747,6.065-6.283,13.489-10.723,18.284,6.8-2.666,14.652-9.091,17.319-15.415-.225,6.123-5.1,14.412-3.182,20.314,5.638-4.166,9.716-15.7,9.964-22.4a67.662,67.662,0,0,0,2.789,15.278c2.056-6.344,1.7-13.069,2.552-19.753C89,268.272,91.2,274.776,97.621,282.31a125.839,125.839,0,0,0-1.747-18.746c1.011,5.577,6.577,11.62,10.384,15.854.206-5.539-1.061-12.593-1.762-18.46,2.827,5.947,9.842,14.08,16.148,16.648-8.728-11.12-16.2-23.362-24-35.031-3.765-5.394-5.31-13.039-11.9-15.911-5.1-2.228-12.139-1.32-14.485,4.433Z" transform="translate(-17.939 -176.886)"/><path class="f" d="M68.661,226.916c.45,12.57-12.985,30.179-22.4,37.716,7.038-.916,12.764-7.416,16.9-12.226-3.307,7.172-7.229,14.324-12.322,20.272a38.158,38.158,0,0,0,20.9-21.71c.057,6.718.114,13.428,1.411,19.612,3.269-6.016,2.312-13.05,4.673-19.387-.835,6.1,3.769,13.561,7.244,18.364.53-6.111-1.656-12.905-.217-18.982,1.831,8.24,12.669,11.849,19.211,16.178-2.861-5.066-7.568-9.621-9.495-15.24,2.956,2.445,6.55,4.04,9.522,6.188-1.675-4.15-7.328-7.858-10.231-11.757-3.5-4.215-5.142-9.239-7.4-14.29-2.514-6.218-7.851-18.379-16.056-10.8Z" transform="translate(-14.542 -196.871)"/><path class="e" d="M70.211,212.789c-1.4,4.913-2.495,9.834-4.791,14.424-3.952,8.026-10.51,12.455-15.942,19.261,3.681-.74,8.606-2.018,11.147-4.845-3.25,5.425-6.817,11.429-11.257,16.224,8.64-3.185,11.009-9.518,16.114-15.755-.511,5.531-.072,10.212.031,15.766,3.723-1.907,4.62-9.754,5.367-13.523.786,3.532,3.033,8.576,5.684,11.3.175-4.959-.557-9.949-.675-14.916,3.124,6.249,10.06,7.961,15.419,11.372-5.528-6.92-13.848-12.772-17.5-21.08a37.409,37.409,0,0,1-2.747-16.445Z" transform="translate(-5.788 -212.789)"/></g><g transform="translate(63.823 540.24)"><path class="g" d="M-27.171,286.423c-4.484,4.47-7.983,9.53-11.97,14.2-4.274,5.424-9.778,10.064-14.036,15.3,6.32.123,3.811,6.832,9.184,5.415.642,2.862,8.253-3.353,7.626-.326-.916,3.78-2.633,7.96-3.036,10.749,6.88-1.2,14.965-7.116,20.669-10.424,1.416,2.494,1.806,5.352,2.707,8.028.691,1.723,2.7,7.448,4.438,9.012.979.881,12.857-11.143,16.493-13.355,4.854,5.035,10.8,15.322,13.223,16.969,4.692-3.328,7.524-10.732,11.226-14.648,5.273,7.184,14.546,15.6,17.052,16.148,1.121-2.636,2.482-17.272,2.482-17.272,2.031-.152,13.452,6.452,15.453,7.059,4.491,1.607,6.925,3.2,11.723,3.479-1.283-3.276-4.346-11.767-5.693-15.967,6.436,3.54,18.437,7,26.285,6.964-1.854-4.214,15.515,2.684,13.41-1.535,7.493,2.426-6.786-5.743,1.806-5.387-2.117-4.03-6.525-7.535-8.126-11.745,4.257,1.034,8.512,2.255,12.761,3.478-5.558-6.374-13.149-12.6-19.221-18.8-4.389-4.071-9.028-8.151-12.643-12.589-1.675-2.309-4.462-8.44-7.726-9.076Z" transform="translate(53.177 -71.632)"/><path class="h" d="M-12.681,254.927c-3.848,14.658-19.279,44.345-29.465,55.357.253-.28,4.419.613,5.094.573a17.361,17.361,0,0,0,6.3-1.795c2.974-1.439,8.3-3.075,10.257-5.992-1.156,3.071-2.529,6.14-3.817,9.185-1.321,3.127-3.557,6.848-4.307,10.064,2.868.484,12.991-6.713,18.261-13.508.392,3.314-.572,17.019.283,20.126,3.232-1.123,6.687-5.565,9.29-7.923,4.178-3.782,9.913-9.548,12.807-14.353-.033,3.7,7.043,20.636,10.452,24.3,1.993-3.879,4.257-8.168,5.158-12.534.53-2.553,3.109-11.511,3.109-11.511s16.911,22.149,16.364,23.525a68.876,68.876,0,0,0,3.324-11.384c.579-5.2,2.349-7.128,3.351-12.314,10.044,9.4,13.859,11.249,23.632,15-1.076-7.411-4.739-14.854-5.818-22.267,6.425.618,14.864,6.02,21.719,6.649-2.013-4.838-7.918-14.573-11.063-21.777-3.849-8.795-11.93-24.849-15.606-31.469-3.264-6.171.292-1.351-5.168-5.85-3.346-3.137-11.962-2.072-16.67-2.643-7.259-1.5-15.73-5.651-23.481-5C10.589,239.5,1.7,250.116-8.283,253.747Z" transform="translate(57.203 -83.603)"/><path class="i" d="M-8.883,234.637c-3.008,12.267-12.476,29.421-20.388,38.639h0c7.293.932,12.8-5.452,18.874-8.544.115,7.625-3.168,12-4.049,19.595,8.392-2.671,12.116-10.655,18.927-16.271,2.813,6.25,6.72,18.856,8.714,21.3,2.94-3.991,6.354-12.891,7.852-19.021C26.255,274.476,35.5,288.9,35.5,288.9a60.558,60.558,0,0,0,2.595-9.521c.457-4.343,1.833-5.961,2.619-10.3,7.763,7.837,10.719,9.379,18.278,12.493-.82-6.193-3.639-12.409-4.464-18.6,4.975.505,11.5,5,16.813,5.516-1.551-4.035-5.115-7.4-7.009-11.085-3.179-5.172-6-11.062-8.847-16.588-2.513-5.154-4.487-17.913-8.7-21.664-2.588-2.615-9.264-1.712-12.912-2.18-5.621-1.244-12.177-4.7-18.183-4.143-8.318.13-15.225,9.013-22.962,12.059Z" transform="translate(61.903 -93.291)"/><path class="j" d="M-2.3,201.937c-.238,8.344-5.2,18.978-8.383,25.788-4.236,8.593-7.774,16.231-13.6,22.237,6.963.923,12.121-5.105,17.853-7.847.838,5.833-1.986,11.559-2.15,17.364,7.838-5.831,11-12.757,17.745-15.834,3.808,7.535,7.509,16.914,7.509,16.914,3.466-4.988,5.648-11.462,7.461-16.855,3.587,2.641,12.876,15.247,12.876,15.247s3.3-10.8,3.414-14.787c4.221,3.75,7.725,9.292,12.624,12.338-.192-4.732-2.733-9.157-2.931-13.882,4.271,1.938,8.843,4.97,13.13,6.182-6.45-7.082-11.764-19.213-15.175-28.026-2.486-6.237-4.114-19.348-7.637-24.172Z" transform="translate(63.725 -99.191)"/><path class="k" d="M8.255,165.925C3.9,178.869.139,190.077-4.428,202.595c-3.576,9.817-6.728,15.953-15.036,26.08,5.657-.2,10.427-4.065,15.172-7.195.9,3.654.112,7.987.683,11.271,4.393-2.416,7.86-7.4,11.94-10.554,3.235,3.359,4.4,9.2,6.283,13.243,2.434-3.919,4.24-8.95,6.028-13.26,4.233,3.387,7.377,9.649,12.651,11.609A117.773,117.773,0,0,0,35.049,218.6c5.55,3.787,10.412,8.273,17.34,10.284-3.729-9.178-8.7-21.664-11.1-31.165-1.8-6.953-6.037-21.953-6.829-29.241Z" transform="translate(65.483 -110.389)"/><path class="l" d="M10.251,152.913c-6.014,23.86-10.8,28.441-19.309,47.082,3.445-4.257,8.555-8.471,12.647-11.986.831,5.834-.337,11.975-.511,18.14,4.11-4.24,6.27-9.989,10.371-13.87,1.863,4.776,3.707,9.913,6.246,14.339,1.144-5.049,1.3-10.491,3.1-15.527,3.254,2.636,6.121,7.074,10.04,9.726-.553-4.01-1.765-8.041-2.652-12.059,3.9,3.38,6.787,7.093,11.368,9.763-7.288-12.908-10.448-21.315-15.688-39.983-2.692-9.58-4.419-13.956-8.194-33.3h0c-.721,1.792-1.11,3.961-1.84,6.119Z" transform="translate(69.281 -125.24)"/></g></g></svg>