<svg xmlns="http://www.w3.org/2000/svg" width="120.848" height="221.499" viewBox="0 0 120.848 221.499"><defs><style>.a{fill:#224121;}.b{fill:#2d502a;}.c{fill:#365e30;}.d{fill:#417242;}</style></defs><path class="a" d="M432.8,239.006c-6.6,25.131-20.016,50.977-32.582,71.646h0c8.243-2.341,16.534-7.107,23.592-12.625-1.658,7.919-6.063,13.808-8.222,21.683,10.256-3.5,18.383-11.357,24.478-16.179.464,6.585-2.108,13.42-3.147,19.876,8-5.383,13.21-9.66,16.922-19.006,1.468,6.663,4.278,15.721,8.367,21.085,2.093-4.668,6.572-11.9,8.759-20.016,5.007,6.456,8.044,14.249,15.253,18.368.617-7.5,1.1-13.395,1.722-20.894,6.67,4.577,11.673,11.028,19.513,13.688-1.09-5.122-3.75-11.683-5.126-17.556,4.9,6.333,12.364,9.094,18.739,11.126-8.971-13.325-16.226-30.189-22.616-44.305-5.635-11.032-6.091-23.3-10.224-34.212Z" transform="translate(-400.217 -103.986)"/><path class="b" d="M433.965,218.3c-4.479,17.757-17.747,44.35-29.023,59.023,7.2-1.924,14.616-6.347,21.409-9.308-1,5.953-4.99,11.666-7.028,18.041,9.09-2.7,13.741-7.73,19.621-17.414a201.1,201.1,0,0,0,7.6,18.75c3.33-3.747,5.107-10.984,8.409-17.768a94.814,94.814,0,0,0,7.841,17.923c1.915-4.874,4.309-13.155,6.178-17.539,4.384,7.915,8.053,12.241,12.85,15.155.369-4.5.9-11.234-.52-18.162a66.675,66.675,0,0,0,17.675,11.522c-8.829-21.117-11.811-33.86-15-56.105Z" transform="translate(-394.921 -118.99)"/><path class="c" d="M440.2,197.554c-.426,11.291-5.366,25.481-9.713,35.442-4.861,12.093-8.916,22.675-19.53,35.389,6.958-1.943,12.913-6.99,19.433-9.726-.2,5.52-2.157,10.9-3.588,16.065,5.3-6.358,11.045-11.923,16.353-18.283,1.673,7.185.178,16.124,2.895,22.892,2.7-8.335,7.045-15.274,10.727-23.28,4.575,11.7,7.266,15.7,12.165,20.381-1.236-9.414-.428-13.119-.937-19.206,4.532,6.161,10.186,13.927,17.789,16.317-4.869-14.243-8-28.1-11.06-42.946a350,350,0,0,0-10.644-38.88Z" transform="translate(-388.183 -148.776)"/><path class="d" d="M449.349,172.345c-3.86,3.641-4.948,10.534-6.812,15.35-5.081,13.115-8.523,27.307-15.062,39.788-3.285,6.275-6.886,13.276-11.314,18.2a44.286,44.286,0,0,0,16.156-9.741,57.871,57.871,0,0,1-2.92,17.127,99.34,99.34,0,0,0,11.813-18.158c1.156,7.4,2.078,13.009,3.02,19.88,4.324-6.689,5.177-9.387,7.792-19.747a109.454,109.454,0,0,0,8.137,18.536c.74-5.983,1.7-12.687.674-18.561,3.9,4.6,9.622,12.935,12.642,14.631a151.476,151.476,0,0,1-10.729-33.71c-1.7-9.55-3.86-19.011-5.584-28.55-.613-3.385-2.691-15.681-5.376-15.9A3.039,3.039,0,0,0,449.349,172.345Z" transform="translate(-382.347 -171.471)"/></svg>