<svg xmlns="http://www.w3.org/2000/svg" width="142.938" height="43.678" viewBox="0 0 142.938 43.678"><g transform="translate(0.568 0.569)"><rect width="141.801" height="42.54" rx="2.114" fill="#eeebef" stroke="#323254" stroke-miterlimit="10" stroke-width="1.138"/><path d="M198.073-282.433v5.4a7.1,7.1,0,0,0,7.1,7.1H211" transform="translate(-69.203 282.434)" fill="none" stroke="#323254" stroke-miterlimit="10" stroke-width="1.138"/><path d="M148.523-269.5h5.4a7.1,7.1,0,0,0,7.1-7.1v-5.834" transform="translate(-148.522 282.434)" fill="none" stroke="#323254" stroke-miterlimit="10" stroke-width="1.138"/><path d="M161.454-258.382v-5.4a7.1,7.1,0,0,0-7.1-7.1H148.52" transform="translate(-148.522 300.921)" fill="none" stroke="#323254" stroke-miterlimit="10" stroke-width="1.138"/><path d="M210.66-270.884h-5.407a7.1,7.1,0,0,0-7.1,7.1v5.834" transform="translate(-69.072 300.921)" fill="none" stroke="#323254" stroke-miterlimit="10" stroke-width="1.138"/><g transform="translate(25.298 13.374)"><path d="M209.775-265.539H171.747a5.335,5.335,0,0,1-5.319-5.319h0a5.333,5.333,0,0,1,5.319-5.319h38.029a5.335,5.335,0,0,1,5.319,5.319h0a5.337,5.337,0,0,1-5.32,5.319Z" transform="translate(-145.159 279.076)" fill="none" stroke="#323254" stroke-miterlimit="10" stroke-width="1.138"/><path d="M194.211-261.437h0a3.878,3.878,0,0,1-3.867-3.867v-8.057a3.878,3.878,0,0,1,3.867-3.867h0a3.878,3.878,0,0,1,3.867,3.867v8.057a3.878,3.878,0,0,1-3.867,3.867Z" transform="translate(-106.874 277.39)" fill="#ea5c87" stroke="#323254" stroke-miterlimit="10" stroke-width="1.138"/><path d="M162.117-261.5h0a3.878,3.878,0,0,1-3.867-3.867v-8.057a3.878,3.878,0,0,1,3.867-3.867h0a3.878,3.878,0,0,1,3.867,3.867v8.057a3.878,3.878,0,0,1-3.867,3.867Z" transform="translate(-158.25 277.291)" fill="#ea5c87" stroke="#323254" stroke-miterlimit="10" stroke-width="1.138"/></g></g></svg>