<svg xmlns="http://www.w3.org/2000/svg" width="166.381" height="50.711" viewBox="0 0 166.381 50.711"><g transform="translate(0.568 0.569)"><rect width="165.244" height="49.573" rx="6" fill="#d93362" stroke="#323254" stroke-miterlimit="10" stroke-width="1.138"/><path d="M253.471-285.224v6.3a8.271,8.271,0,0,0,8.271,8.271h6.8" transform="translate(-103.296 285.224)" fill="none" stroke="#323254" stroke-miterlimit="10" stroke-width="1.138"/><path d="M195.729-270.155h6.3a8.272,8.272,0,0,0,8.273-8.271v-6.8" transform="translate(-195.729 285.224)" fill="none" stroke="#323254" stroke-miterlimit="10" stroke-width="1.138"/><path d="M210.8-257.194v-6.3a8.271,8.271,0,0,0-8.27-8.271h-6.8" transform="translate(-195.729 306.768)" fill="none" stroke="#323254" stroke-miterlimit="10" stroke-width="1.138"/><path d="M268.137-271.766h-6.3a8.27,8.27,0,0,0-8.271,8.272v6.8" transform="translate(-103.142 306.768)" fill="none" stroke="#323254" stroke-miterlimit="10" stroke-width="1.138"/><g transform="translate(29.48 15.584)"><path d="M267.108-265.539H222.79a6.214,6.214,0,0,1-6.2-6.2h0a6.214,6.214,0,0,1,6.2-6.2h44.317a6.214,6.214,0,0,1,6.2,6.2h0a6.214,6.214,0,0,1-6.2,6.2Z" transform="translate(-191.807 281.313)" fill="none" stroke="#323254" stroke-miterlimit="10" stroke-width="1.138"/><path d="M248.971-260.758h0a4.521,4.521,0,0,1-4.507-4.507v-9.389a4.519,4.519,0,0,1,4.507-4.5h0a4.519,4.519,0,0,1,4.507,4.5v9.389a4.521,4.521,0,0,1-4.507,4.507Z" transform="translate(-147.194 279.349)" fill="#fbfaf6" stroke="#323254" stroke-miterlimit="10" stroke-width="1.138"/><path d="M211.571-260.829h0a4.521,4.521,0,0,1-4.507-4.507v-9.389a4.521,4.521,0,0,1,4.507-4.507h0a4.521,4.521,0,0,1,4.507,4.507v9.389a4.521,4.521,0,0,1-4.507,4.507Z" transform="translate(-207.064 279.232)" fill="#fbfaf6" stroke="#323254" stroke-miterlimit="10" stroke-width="1.138"/></g></g></svg>